<svg xmlns="http://www.w3.org/2000/svg" viewBox="0 0 559 559"><defs><style>.cls-1{fill:#adacaf;}.cls-2{fill:#282828;}.cls-3{fill:#e35a89;}.cls-4{fill:#d1d3d4;}.cls-5{fill:#0d1127;}.cls-6{fill:#e2e2e2;}.cls-7{fill:#231f20;}.cls-8{fill:#6dccdd;}.cls-9{fill:#9d732a;}.cls-10{fill:#d78e28;}.cls-11{fill:#828282;}.cls-12{fill:#e0e0e0;}.cls-13{fill:#e32e57;}.cls-14{fill:#fff;}.cls-15{fill:#434343;}</style></defs><g id="Layer_3" data-name="Layer 3"><path class="cls-1" d="M307.88,236.62s29.66-24.5,37.33-66.09c14.67-42.64,49.67-49.92,66.67-27,7,57.51-8.89,105-10.45,108.15S307.88,236.62,307.88,236.62Z"/><path class="cls-2" d="M324.88,371a13.8,13.8,0,0,0,3.61.92c-11,1.36-20.61,2.08-20.61,2.08L319,367A14.7,14.7,0,0,0,324.88,371Z"/><path class="cls-2" d="M324.88,371a14.7,14.7,0,0,1-5.91-4l27.28-17.15c-1,9.34-5.42,18.59-12.26,21.32-1.85.26-3.69.5-5.5.72A13.8,13.8,0,0,1,324.88,371Z"/><path class="cls-3" d="M298.54,388.47s-.64,3.84-.19,4.68a28.14,28.14,0,0,1,1.2,3.55s2.58,2.84,2.38,5.06c-.14,1.5,1.2,3.85,2.17,5.32a38.06,38.06,0,0,0-4.14,1.07,3.88,3.88,0,0,0-.8-2c-2-2.61-3.08-2.73-3.08-2.73a5.81,5.81,0,0,1-.59-1.48c-.06-.49-1-2.62-1.31-2.68S294,394,294,394l-.35-4.5Z"/><path class="cls-3" d="M289.45,413.89c.52-1.13,1.89-1.54,3.11-1.82a14.72,14.72,0,0,0,4.44-1.53c1.28-.55,2.65-1.32,2.78-2.86a18.4,18.4,0,0,0,4.18-.88c4.24,4.84,11.56,1.18,17,3.2a3.81,3.81,0,0,0-2,4.57c-3-.15-10.84.53-10.55,4.57a13.24,13.24,0,0,1-5.38-1.05,28.82,28.82,0,0,0-3.42-2.07c-2.92-1-5.74,1-8.45,1.76a1.33,1.33,0,0,1-.81.05c-.42-.15-.6-.64-.73-1.07A4.08,4.08,0,0,1,289.45,413.89Z"/><path class="cls-4" d="M289.87,413.23c-4.26,3.21-4.71,5.83-4.71,5.83a61.11,61.11,0,0,1,6.23-1.2C289.23,417.48,289.87,413.23,289.87,413.23Z"/><path class="cls-4" d="M320.64,409.62c3.74-1.16,5.47,3.41,8.1,5.09a22.61,22.61,0,0,1-9.55-.14,1.1,1.1,0,0,1-.66-.33,1,1,0,0,1-.1-.87,7.24,7.24,0,0,1,2.12-3.88"/><path class="cls-4" d="M312.59,414.74c4.35.24,4.06,5.15,6,7.88a25.57,25.57,0,0,1-11.73-2.9c-.33-.17-.68-.37-.73-.7s.33-.81.7-1.16a13.87,13.87,0,0,1,5.75-3.27"/><path class="cls-5" d="M311,370a.51.51,0,0,1,.47.76c-2.17,3.94-11.79,21.21-13.56,21.21a12.17,12.17,0,0,1-4.08-.88S268.88,375,272.88,373C276.5,371.19,305.46,370.2,311,370Z"/><path class="cls-1" d="M170.68,386.2c-34.64-3.34-64-9.6-79.68-15.12,0,0,27.61-25.89,64.46-55"/><path class="cls-2" d="M389.74,244.64c2.23.62,4.19,1.2,5.82,1.69-2.11,0-4.23-.12-6.33-.27A3,3,0,0,0,389.74,244.64Z"/><path class="cls-2" d="M382.4,245.24l.22.17-.28,0Z"/><path class="cls-6" d="M344.94,340c-1.72-4.7-5.06-7.63-10-7.13-.66-31.87.38-63.61,5.28-94.75l.3,0c9.54,2.54,19.05,5.73,27.89,6.19a2.62,2.62,0,0,0,2.71,1.23l.35-.05a2.43,2.43,0,0,0,2.41,1.93,2.31,2.31,0,0,0,1.67-.66,2.54,2.54,0,0,0,.57.07,2.37,2.37,0,0,0,2.25-1.51l.26,0a2.33,2.33,0,0,0,1.49.5,2,2,0,0,0,.35,0,2.36,2.36,0,0,0,2.16,1.29,2.32,2.32,0,0,0,2.05-1.11q2.89.23,5.81.27c3.22,1.06,5.07,1.74,5.07,1.74,7.53,61.61-17.48,97.89-55.73,118.1C344.46,359.57,346.53,348.63,344.94,340Z"/><path class="cls-6" d="M335.88,359q-.64-13.08-.95-26.13c5.42-.5,9.07,2.43,10.95,7.13,1.72,8.63-.53,19.57-5.61,26.17-.63.31-1.25.62-1.89.92A13.26,13.26,0,0,1,335.88,359Z"/><path class="cls-2" d="M303,236.12a99.54,99.54,0,0,1,21.15-2c-.41.31-.81.62-1.21,1a103.47,103.47,0,0,1,17.75,3v0l-.81-.12.81.12c-5.34,31.14-6.47,62.88-5.76,94.75-.34,0-.69.07-1.05.13.36-.06.71-.1,1.05-.13q.3,13,.95,26.13a13.26,13.26,0,0,0,2.5,8.09c-3.57,1.67-7.25,3.21-11,4.66a14.92,14.92,0,0,1-2.49-.75c-18-7-5-31,9-39-14,8-27,32-9,39a14.92,14.92,0,0,0,2.49.75c-46.72,18-107.12,19.23-156.68,14.45l-15.23-70.11C202.32,279.09,264.1,236.89,303,236.12Z"/><path class="cls-2" d="M340.7,238.09l.32.08-.33,0Z"/><path class="cls-3" d="M244.35,402a1.82,1.82,0,0,1,1.78,2.32,7.79,7.79,0,0,0-.49,3.08,27.71,27.71,0,0,1,.59,4c.44,1.62,2.38,4.18,1.7,6.84a8.61,8.61,0,0,0,.53,4.44,1.82,1.82,0,0,1-1.62,2.36l-.85.07a1.84,1.84,0,0,1-1.9-1.42,6.27,6.27,0,0,0-.37-1,10.27,10.27,0,0,0-2.54-3.61,2.62,2.62,0,0,1-.82-2.13c0-.58-.58-3.29-.94-3.43s.79-5.37,1-6.11l0-.18.4-3.65a1.82,1.82,0,0,1,1.79-1.62Z"/><path class="cls-3" d="M230.62,429.7c.86-1.21,2.56-1.38,4-1.44a17.1,17.1,0,0,0,5.54-.81,5.39,5.39,0,0,0,3.52-1.89,1.71,1.71,0,0,1,1.52-.76,21.55,21.55,0,0,0,3.94-.19c2,3.79,6.56,4.56,10.58,5.16a42.1,42.1,0,0,1,5.31,1,1.81,1.81,0,0,1,.92,2.86,4.54,4.54,0,0,0-.89,1.64,1.86,1.86,0,0,1-2.06,1.36c-3.2-.4-9-.82-11,2.12a1.84,1.84,0,0,1-2.08.85,12.18,12.18,0,0,1-4.37-2c-1.26-1-2.18-2.37-3.55-3.18-3.2-1.86-6.94-.14-10.29.2a1.61,1.61,0,0,1-1-.13,1.79,1.79,0,0,1-.61-1.41A5,5,0,0,1,230.62,429.7Z"/><path class="cls-4" d="M227.81,431.1a1.89,1.89,0,0,0,1.09,3.59C232.11,434.44,230.61,429.38,227.81,431.1Z"/><path class="cls-4" d="M268.11,431.61a4.42,4.42,0,0,1,3.67,1.26,14,14,0,0,1,2.51,3.51,1.83,1.83,0,0,1-1.85,2.73,26.78,26.78,0,0,1-7.13-2,1.39,1.39,0,0,1-.7-.53,1.27,1.27,0,0,1,.07-1,8.62,8.62,0,0,1,3.36-4.08"/><path class="cls-4" d="M257.54,435.83c3.19.78,4,3.7,4.3,6.51.06.42.11.84.18,1.26a1.83,1.83,0,0,1-2.35,2,31.86,31.86,0,0,1-10-5.23c-.36-.27-.72-.58-.7-1s.56-.88,1.08-1.21a16.55,16.55,0,0,1,7.46-2.55"/><path class="cls-7" d="M373.71,155.94a11.78,11.78,0,0,1,4.55-1.06,5.87,5.87,0,0,1,3.42,1.34c2.57,2,4.63,6,8.45,5.52.63-.08.36-1.05-.27-1-2,.26-3.87-1.49-5.05-2.85a15,15,0,0,0-3.34-3.07c-2.54-1.57-5.4-.92-8,.11-.59.24-.34,1.2.26,1Z"/><path class="cls-8" d="M383,158.29c2.18,3.28-3,10-6.85,8.68-1.78-.55-8.76-2.51-5-8.41C374.37,154.38,378.88,152.76,383,158.29Z"/><path class="cls-7" d="M382.7,158.48c1.33,2.09-.32,4.92-1.82,6.44a5.93,5.93,0,0,1-3,1.79,4.73,4.73,0,0,1-2.46-.38c-1.67-.56-3.6-1.38-4.5-3-1.43-2.52,1-5.45,2.89-6.89a5.71,5.71,0,0,1,4.3-1.28,7.79,7.79,0,0,1,4.62,3.3c.29.38.94,0,.64-.37a9.16,9.16,0,0,0-4.37-3.48,5.79,5.79,0,0,0-4.32.41,10.32,10.32,0,0,0-3.77,3.33,5.76,5.76,0,0,0-1.09,4.12c.41,2.28,2.71,3.56,4.69,4.31a9,9,0,0,0,2.62.72,5.57,5.57,0,0,0,3.57-1.4c2.11-1.7,4.38-5.34,2.67-8C383.09,157.7,382.44,158.08,382.7,158.48Z"/><path class="cls-7" d="M373.84,155.21a10.54,10.54,0,0,0-3.53,4,5.83,5.83,0,0,0,.36,5.1,7.26,7.26,0,0,0,4.17,3.34,17.13,17.13,0,0,0,6.34.44c.64,0,.64-1,0-1-3.44.2-7.56.24-9.56-3.13a4.84,4.84,0,0,1-.26-4.65,10.75,10.75,0,0,1,3.18-3.4c.51-.39-.2-1.09-.7-.7Z"/><path class="cls-7" d="M370.93,162.74a7.07,7.07,0,0,0-5.57-4.46.5.5,0,0,0-.5.5.51.51,0,0,0,.5.5A6,6,0,0,1,370,163a.51.51,0,0,0,.61.35.49.49,0,0,0,.35-.61Z"/><path class="cls-7" d="M366,159.25c1.74-.84,3.43-1.8,5.18-2.64a14.77,14.77,0,0,1,5.33-1.65,5.55,5.55,0,0,1,4,1.31c1.09.88,2,1.95,3,2.89a7.85,7.85,0,0,0,4,2.16c.63.1.9-.86.26-1-3-.47-4.64-3.29-6.88-5a6.34,6.34,0,0,0-4-1.4,13.6,13.6,0,0,0-5.34,1.36c-2.1.92-4.08,2.08-6.14,3.07-.58.28-.07,1.14.51.87Z"/><path class="cls-7" d="M372.47,155.32a11.78,11.78,0,0,0-3.17,4.86l.84-.22a7,7,0,0,0-2.62-1.66l-.14,1a3.82,3.82,0,0,0,4.17-2.26c.18-.44-.38-.74-.73-.56l-2.63,1.33c-.49.25-.14,1.13.39.92,1.53-.61,2.92-1.47,4.38-2.21a7.23,7.23,0,0,1,4.53-1.08,9.44,9.44,0,0,1,3.33,1.82,7.53,7.53,0,0,0,3.46,1.48c.64.07.63-.93,0-1-2.66-.3-4.28-3-7-3.34-3.29-.39-6.12,2.22-9,3.36l.39.91,2.62-1.33-.73-.56a2.89,2.89,0,0,1-3.21,1.52c-.59-.06-.63.81-.13,1a5.6,5.6,0,0,1,2.18,1.4.51.51,0,0,0,.84-.22,10.62,10.62,0,0,1,2.91-4.42c.48-.43-.23-1.14-.71-.71Z"/><path class="cls-7" d="M369.66,159.7a.5.5,0,0,0,0-1,.5.5,0,0,0,0,1Z"/><path class="cls-7" d="M316.72,149.93a.5.5,0,0,0,0-1,.5.5,0,0,0,0,1Z"/><path class="cls-7" d="M316.06,152a.5.5,0,0,0,0-1,.5.5,0,0,0,0,1Z"/><path class="cls-7" d="M370.5,161.92a.5.5,0,0,0,0-1,.5.5,0,0,0,0,1Z"/><path class="cls-7" d="M412.73,157.15a6,6,0,0,0-2.9-1.67,2.84,2.84,0,0,0-2.27.73,11.44,11.44,0,0,0-2,2.45c-.54.81-1.63,2.51-2.82,2.09-.61-.22-.87.74-.27,1,1.11.4,2.15-.36,2.87-1.13s1.36-1.93,2.11-2.85a2.94,2.94,0,0,1,1.85-1.28c1-.08,2,.78,2.7,1.41.48.43,1.19-.28.71-.71Z"/><path class="cls-8" d="M406.75,159.2c-1.16,2,.55,8.44,3.27,7.88,1-.29,4.72-1.3,3.36-6.5C412,156.39,409.51,154.28,406.75,159.2Z"/><path class="cls-7" d="M406.43,159a4.48,4.48,0,0,0-.4,2.53,9.91,9.91,0,0,0,.72,3.13c.59,1.45,1.8,3.27,3.62,2.7a5,5,0,0,0,3.28-2.67,6,6,0,0,0,.26-3.49,9.47,9.47,0,0,0-1.61-3.76,2.92,2.92,0,0,0-2.73-1.44c-1.47.26-2.47,1.81-3.14,3-.24.42.41.8.64.38.55-1,1.31-2.26,2.46-2.6a1.92,1.92,0,0,1,2,.84,8.19,8.19,0,0,1,1.56,3.17,6,6,0,0,1,.05,3.26,4,4,0,0,1-2.66,2.5,1.6,1.6,0,0,1-1.37,0,3.8,3.8,0,0,1-1.44-1.75,9.27,9.27,0,0,1-.83-3,4.36,4.36,0,0,1,.27-2.48A.37.37,0,0,0,406.43,159Z"/><path class="cls-7" d="M411.59,157.8c1.18,2,2,4.17,1.14,6.49a4.37,4.37,0,0,1-1.63,2.26,4.68,4.68,0,0,1-3.6.17c-.63-.14-.9.82-.27,1a6,6,0,0,0,4.12-.12,5.09,5.09,0,0,0,2.19-2.6,7.17,7.17,0,0,0,.43-4,11.14,11.14,0,0,0-1.52-3.65.5.5,0,0,0-.86.51Z"/><path class="cls-7" d="M413.82,164.42a8,8,0,0,1,.59-1.11,2.2,2.2,0,0,1,.17-.25,1,1,0,0,1,.08-.11l0,0a5,5,0,0,1,.39-.41,1.54,1.54,0,0,1,.19-.17l.06,0,.08-.06a3.26,3.26,0,0,1,.4-.24l.1-.05c-.11.06,0,0,0,0l.21-.07.2,0c.11,0-.1,0,0,0h.12a.51.51,0,0,0,.5-.5.5.5,0,0,0-.5-.5c-1.83.06-3,1.83-3.64,3.35a.5.5,0,1,0,1,.27Z"/><path class="cls-7" d="M416.66,160.94a50.62,50.62,0,0,0-3.57-3.89c-1-.88-2.41-1.76-3.8-1.28a6.31,6.31,0,0,0-2.62,2.45c-.64.85-1.49,2.25-2.68,2.35-.63.06-.64,1.06,0,1,2.53-.21,3.29-3.27,5.1-4.57,1.18-.85,2.51.05,3.43.87,1.26,1.14,2.28,2.53,3.43,3.78.44.47,1.15-.24.71-.71Z"/><path class="cls-7" d="M412.35,158.05a11.57,11.57,0,0,1,1.11,4.17c0,.39.55.71.85.35a3.16,3.16,0,0,1,1.24-1c.5-.19.47-1-.13-1-.83,0-1.2-.81-1.28-1.53l-.86.35,1.28,1.45.71-.71c-.86-.77-1.52-1.74-2.3-2.58a4.06,4.06,0,0,0-2.54-1.54,3.33,3.33,0,0,0-2.28,1.1c-.6.53-1.27,1.34-2.13,1.35a.5.5,0,0,0,0,1,3.45,3.45,0,0,0,2.19-1.06c.55-.48,1.18-1.27,2-1.38s1.7.8,2.22,1.38a31.49,31.49,0,0,0,2.17,2.44.5.5,0,0,0,.71-.71L414,158.74c-.27-.31-.91-.08-.85.35.14,1.25.85,2.56,2.28,2.53l-.13-1a3.93,3.93,0,0,0-1.68,1.22l.85.36a12.86,12.86,0,0,0-1.25-4.68c-.29-.57-1.15-.07-.86.51Z"/><path class="cls-7" d="M414.15,161.77a.5.5,0,0,0,0-1,.5.5,0,0,0,0,1Z"/><path class="cls-7" d="M414.75,161.19a.5.5,0,0,0,0-1,.5.5,0,0,0,0,1Z"/><path class="cls-7" d="M415.1,161.28a.5.5,0,0,0,0-1,.5.5,0,0,0,0,1Z"/><path class="cls-7" d="M413.46,163.59a.5.5,0,0,0,0-1,.5.5,0,0,0,0,1Z"/><path class="cls-9" d="M407.12,187.75c-8.81,1-21-.44-20.15-6.52S407.12,187.75,407.12,187.75Z"/><path class="cls-10" d="M385.89,177.21s6.49-14.24,20.77-6.75c8.32,8.71,6.61,16.77,6.61,16.77-1.89,3.07-12.07-1.56-12.07-1.56S385.21,186.24,385.89,177.21Z"/><path class="cls-11" d="M167.39,363C126.14,369,92,372.08,92,372.08s24.22-24.05,57.89-51.86"/><path class="cls-2" d="M167.39,363c58.81-8.54,132.08-23,141.49-43,16-34-31-79-31-79-40.69,12.15-90.27,48.05-128,79.22"/><path class="cls-2" d="M258,386a.51.51,0,0,1,.47.76c-2.17,3.94-11.79,21.21-13.56,21.21a12.17,12.17,0,0,1-4.08-.88S215.88,391,219.88,389C223.5,387.19,252.46,386.2,258,386Z"/><polygon class="cls-6" points="336.1 345.85 318.03 375.19 338.38 367.09 336.1 345.85"/><path class="cls-12" d="M150.1,319.22l-8,6.67S154.88,364,156.88,364s11.44-1.44,11.44-1.44Z"/><path class="cls-13" d="M380.45,245.88s2.31,12.32-4.92,18.38c-5.06-.59-5.71-1.85-5.71-1.85s-3.54-8.51-2-10.11,3.73-8.25,4.68-7.94S378.86,244.31,380.45,245.88Z"/><path class="cls-13" d="M375.83,262.67s.87,36.21-1.38,39c-3.86,9.7-12,22.05-16.2,24.69-4.46-6.41-2.77-14.3-2.77-14.3,8.14-24.38,15.28-48.86,15.37-49.85S375.83,262.67,375.83,262.67Z"/><path class="cls-14" d="M405.21,240.22s-21.09,5.54-24.33,5.66c1.3,11.12,2.21,12.12,2.21,12.12s17.78-6.11,18.89-7.56S405.21,240.22,405.21,240.22Z"/><path class="cls-14" d="M320.1,224.67s49.38,19.05,51.78,19.69C367.12,250,366.1,256,363,256s-53.15-21.56-53.15-21.56Z"/><path class="cls-15" d="M319.88,224.67s19.22,6.44,21.11,8.89S353.88,349,319.88,371c9-44-4-82-4-82l17-6c-18,0-18-4-18-4l-5-44.56Z"/><path class="cls-15" d="M405.69,238.08l-8.55,3.85s-30.51,100.86-25.68,102.5,30.36-41.25,29.32-49.22l-6.3-2.29c3.15-2.39,9.53-4.18,9.54-6.23S407.13,241.17,405.69,238.08Z"/><path class="cls-15" d="M405.21,237c37.82,3,78.2,14,79,26-19.26,7.16-55.5,10-79,3A124.52,124.52,0,0,0,405.21,237Z"/><path class="cls-2" d="M407.94,370.39c31.84-5.38,66.7-43.25,71.27-69.39,7-40,4-42,4-42-7,10.32-24.11,9.28-42.82,4.29"/><path class="cls-11" d="M407.94,370.39c-1.39.24-2.78.41-4.17.52a3.59,3.59,0,0,1-2.69-1c-1.74-1.63-4.87-2.93-9.87-8.93-1.18-1.42-9.31-12.67-8-14,1.75-1.77,13.69,7.46,19,6-11.08-1.37-20-15.13-20-26a144.73,144.73,0,0,0,29,12c-14.4-6.84-33.11-34-32-46,0,0,12.08,14.43,42,24-19.94-5.47-50.31-39.62-47-50.55,0,0,29.86,15.14,62,31.55-39.89-16.41-73.48-58.78-63.1-58.89,5.33-.07,26.9,10.54,49.83,18.68"/><path class="cls-14" d="M422.94,257.79c5.81,2.06,11.7,4,17.45,5.5,0,0-16.07-4.62-18.62-6S407.21,370,407.21,370a31.25,31.25,0,0,0,7-2c11-27,27.33-104.44,27.33-104.44Z"/></g></svg>