<svg xmlns="http://www.w3.org/2000/svg" viewBox="0 0 126.58 144.74"><defs><style>.cls-1{fill:#ced1ef;}.cls-2{fill:none;}.cls-3{fill:#5351a2;}.cls-4{fill:#eee6ca;}.cls-5{fill:#5b6ab2;}.cls-6{fill:#6d7abb;}.cls-7{fill:#fee0c0;}.cls-8{fill:#4e61ac;}.cls-9{fill:#8da8d7;}.cls-10{fill:#f8e1c0;}.cls-11{fill:#6c6bb1;}.cls-12{fill:#f9e0c3;}.cls-13{fill:#a6a5d2;}.cls-14{fill:#9392c7;}.cls-15{fill:#feddc7;}</style></defs><g id="Layer_2" data-name="Layer 2"><g id="Layer_1-2" data-name="Layer 1"><rect class="cls-1" width="126.58" height="144.74"/><path class="cls-2" d="M25.78,59.94V13.88A7.77,7.77,0,0,1,27,12H0v48Z"/><polygon class="cls-2" points="106.8 47.28 112.52 47.28 112.52 47.28 112.52 51.37 126.58 51.37 126.58 11.96 73.48 11.96 73.48 47.28 106.8 47.28"/><path class="cls-3" d="M112.52,58.83h1.87V60h-1.87v6.59h1.87v1.17h-1.87v6.59h1.87v1.17h-1.87v5.86h14.06v-30H112.52Zm6,20.48h-1.9V78.14h1.9Zm0-16.69v1.17h-1.9V62.62ZM118.29,60V58.83h1.91V60Zm0,6.59h1.91v1.17h-1.91Zm.26,3.79v1.17h-1.9V70.38Zm-.26,4h1.91v1.17h-1.91Zm2.56,5H119V78.14h1.9Zm0-7.76H119V70.38h1.9Zm0-7.76H119V62.62h1.9Zm.38-8.93h1.91V56h-1.91Zm0,7.76h1.91v1.17h-1.91Zm0,7.76h1.91v1.17h-1.91Zm0,7.76h1.91v1.17h-1.91ZM119,54.86h1.9V56H119Zm-2.3,0h1.9V56h-1.9Zm-1.26,4h1.9V60h-1.9Zm0,7.76h1.9v1.17h-1.9Zm0,7.76h1.9v1.17h-1.9Z"/><rect class="cls-4" x="116.65" y="78.14" width="1.9" height="1.17"/><rect class="cls-4" x="118.95" y="78.14" width="1.9" height="1.17"/><rect class="cls-4" x="121.23" y="78.14" width="1.9" height="1.17"/><rect class="cls-4" x="116.65" y="70.38" width="1.9" height="1.17"/><rect class="cls-4" x="118.95" y="70.38" width="1.9" height="1.17"/><rect class="cls-4" x="121.23" y="70.38" width="1.9" height="1.17"/><rect class="cls-4" x="112.52" y="74.35" width="1.87" height="1.17"/><rect class="cls-4" x="115.39" y="74.35" width="1.9" height="1.17"/><rect class="cls-4" x="118.29" y="74.35" width="1.9" height="1.17"/><rect class="cls-4" x="116.65" y="62.62" width="1.9" height="1.17"/><rect class="cls-4" x="118.95" y="62.62" width="1.9" height="1.17"/><rect class="cls-4" x="121.23" y="62.62" width="1.9" height="1.17"/><rect class="cls-4" x="112.52" y="66.59" width="1.87" height="1.17"/><rect class="cls-4" x="115.39" y="66.59" width="1.9" height="1.17"/><rect class="cls-4" x="118.29" y="66.59" width="1.9" height="1.17"/><rect class="cls-4" x="116.65" y="54.86" width="1.9" height="1.17"/><rect class="cls-4" x="118.95" y="54.86" width="1.9" height="1.17"/><rect class="cls-4" x="121.23" y="54.86" width="1.9" height="1.17"/><rect class="cls-4" x="112.52" y="58.83" width="1.87" height="1.17"/><rect class="cls-4" x="115.39" y="58.83" width="1.9" height="1.17"/><rect class="cls-4" x="118.29" y="58.83" width="1.9" height="1.17"/><polygon class="cls-5" points="112.52 138.53 113.59 138.53 113.59 92.28 117.91 92.28 117.91 138.53 120.77 138.53 120.77 92.28 125.08 92.28 125.08 138.53 126.58 138.53 126.58 85.69 112.52 85.69 112.52 138.53"/><rect class="cls-6" x="112.52" y="81.38" width="14.06" height="4.31"/><rect class="cls-7" x="113.59" y="92.28" width="4.31" height="46.25"/><rect class="cls-8" x="120.76" y="92.28" width="4.31" height="46.25"/><path class="cls-9" d="M112.52,85.69V47.28h-39v91.25h2.41v-9.39H79.5v9.39h3.93v-9.39H87v9.39H91v-9.39h3.61v9.39h3.93v-9.39h3.61v9.39h10.4Zm-33,38H75.89V104.26H79.5Zm0-24.87H75.89V79.39H79.5ZM79.5,74H75.89V54.51H79.5Zm22.62,24.88H98.51V79.39h3.61Zm0,24.87H98.51V104.26h3.61Zm-3.61-69.2h3.61V74H98.51Zm-3.93,0V74H91V54.51ZM91,98.84V79.39h3.61V98.84ZM87,123.71H83.43V104.26H87Zm0-24.87H83.43V79.39H87ZM87,74H83.43V54.51H87ZM91,123.71V104.26h3.61v19.45Z"/><rect class="cls-10" x="75.89" y="129.14" width="3.61" height="9.39"/><rect class="cls-10" x="83.43" y="129.14" width="3.61" height="9.39"/><rect class="cls-10" x="90.97" y="129.14" width="3.61" height="9.39"/><rect class="cls-10" x="98.51" y="129.14" width="3.61" height="9.39"/><rect class="cls-10" x="75.89" y="104.26" width="3.61" height="19.45"/><rect class="cls-10" x="83.43" y="104.26" width="3.61" height="19.45"/><rect class="cls-10" x="90.97" y="104.26" width="3.61" height="19.45"/><rect class="cls-10" x="98.51" y="104.26" width="3.61" height="19.45"/><rect class="cls-10" x="75.89" y="79.39" width="3.61" height="19.45"/><rect class="cls-10" x="83.43" y="79.39" width="3.61" height="19.45"/><rect class="cls-10" x="90.97" y="79.39" width="3.61" height="19.45"/><polygon class="cls-10" points="102.13 79.39 98.52 79.39 98.52 81.38 98.52 85.69 98.52 98.84 102.13 98.84 102.13 79.39"/><rect class="cls-10" x="75.89" y="54.51" width="3.61" height="19.45"/><rect class="cls-10" x="83.43" y="54.51" width="3.61" height="19.45"/><rect class="cls-10" x="90.97" y="54.51" width="3.61" height="19.45"/><rect class="cls-10" x="98.51" y="54.51" width="3.61" height="19.45"/><path class="cls-11" d="M25.78,59.94h17v-.08H73.48v4.56h-7v4.23h7v4.56h-7v4.23h7V82h-7v4.23h7v4.56h-7V95h7v4.56h-7v4.23h7v4.56h-7v4.23h7v4.56h-7v4.23h7V126h-7v4.22h7v4.56h-7v3.8h7V12H27a7.77,7.77,0,0,0-1.18,1.93Zm17-44H73.48v4.56H42.76Zm0,8.79H73.48v4.56H42.76Zm0,8.79H73.48v4.56H42.76Zm0,8.79H73.48v4.56H42.76Zm0,8.78H73.48v4.56H42.76Z"/><rect class="cls-12" x="42.76" y="15.92" width="30.72" height="4.56"/><rect class="cls-12" x="42.76" y="24.71" width="30.72" height="4.56"/><rect class="cls-12" x="42.76" y="33.5" width="30.72" height="4.56"/><rect class="cls-12" x="42.76" y="42.29" width="30.72" height="4.56"/><rect class="cls-12" x="42.76" y="51.07" width="30.72" height="4.56"/><polygon class="cls-12" points="59.27 59.94 66.5 59.94 66.5 64.42 73.48 64.42 73.48 59.86 42.77 59.86 42.77 59.94 59.27 59.94"/><rect class="cls-12" x="66.49" y="68.65" width="6.99" height="4.56"/><rect class="cls-12" x="66.49" y="77.44" width="6.99" height="4.56"/><rect class="cls-12" x="66.49" y="86.23" width="6.99" height="4.56"/><rect class="cls-12" x="66.49" y="95.02" width="6.99" height="4.56"/><rect class="cls-12" x="66.49" y="103.81" width="6.99" height="4.56"/><rect class="cls-12" x="66.49" y="112.6" width="6.99" height="4.56"/><rect class="cls-12" x="66.49" y="121.39" width="6.99" height="4.56"/><rect class="cls-12" x="66.49" y="130.17" width="6.99" height="4.56"/><polygon class="cls-13" points="59.27 59.94 42.77 59.94 25.79 59.94 0 59.94 0 66.79 52.58 66.79 52.58 72.4 0 72.4 0 75.77 52.58 75.77 52.58 81.38 0 81.38 0 84.76 52.58 84.76 52.58 90.37 0 90.37 0 93.74 52.58 93.74 52.58 99.35 0 99.35 0 102.72 52.58 102.72 52.58 108.33 0 108.33 0 111.7 52.58 111.7 52.58 117.31 0 117.31 0 120.68 52.58 120.68 52.58 126.29 0 126.29 0 129.66 52.58 129.66 52.58 135.27 0 135.27 0 138.53 59.27 138.53 59.27 59.94"/><polygon class="cls-14" points="66.5 130.17 66.5 125.95 66.5 121.39 66.5 117.16 66.5 112.6 66.5 108.37 66.5 103.81 66.5 99.58 66.5 95.02 66.5 90.79 66.5 86.23 66.5 82 66.5 77.44 66.5 73.21 66.5 68.65 66.5 64.42 66.5 59.94 59.27 59.94 59.27 138.53 66.5 138.53 66.5 134.73 66.5 130.17"/><rect class="cls-15" y="66.79" width="52.58" height="5.61"/><rect class="cls-15" y="75.77" width="52.58" height="5.61"/><rect class="cls-15" y="84.76" width="52.58" height="5.61"/><rect class="cls-15" y="93.74" width="52.58" height="5.61"/><rect class="cls-15" y="102.72" width="52.58" height="5.61"/><rect class="cls-15" y="111.7" width="52.58" height="5.61"/><rect class="cls-15" y="120.68" width="52.58" height="5.61"/><rect class="cls-15" y="129.66" width="52.58" height="5.61"/></g></g></svg>