<svg xmlns="http://www.w3.org/2000/svg" xmlns:xlink="http://www.w3.org/1999/xlink" viewBox="0 0 129.46 129.46"><defs><style>.cls-1{fill:none;}.cls-2{fill:#fff;}.cls-3{clip-path:url(#clip-path);}.cls-4{fill:#ced1ef;}.cls-5{fill:#5351a2;}.cls-6{fill:#eee6ca;}.cls-7{fill:#5b6ab2;}.cls-8{fill:#6d7abb;}.cls-9{fill:#fee0c0;}.cls-10{fill:#4e61ac;}.cls-11{fill:#8da8d7;}.cls-12{fill:#f8e1c0;}.cls-13{fill:#6c6bb1;}.cls-14{fill:#f9e0c3;}.cls-15{fill:#a6a5d2;}.cls-16{fill:#9392c7;}.cls-17{fill:#feddc7;}</style><clipPath id="clip-path"><ellipse class="cls-1" cx="64.76" cy="64.73" rx="54.32" ry="52.63"/></clipPath></defs><g id="Layer_2" data-name="Layer 2"><g id="Layer_1-2" data-name="Layer 1"><circle class="cls-2" cx="64.73" cy="64.73" r="64.73"/><g class="cls-3"><g id="Layer_2-2" data-name="Layer 2"><g id="Layer_1-2-2" data-name="Layer 1-2"><rect class="cls-4" x="5.22" y="-8.96" width="119.01" height="136.09"/><path class="cls-1" d="M29.46,47.4V4.09a7.37,7.37,0,0,1,1.15-1.77H5.22V47.45Z"/><polygon class="cls-1" points="105.64 35.49 111.02 35.49 111.02 35.49 111.02 39.34 124.24 39.34 124.24 2.29 74.31 2.29 74.31 35.49 105.64 35.49"/><path class="cls-5" d="M111,46.35h1.75v1.1H111v6.2h1.75v1.1H111v6.19h1.75V62H111v5.51h13.22V39.35H111Zm5.64,19.26h-1.79v-1.1h1.79Zm0-15.69V51h-1.79v-1.1Zm-.22-2.47v-1.1h1.8v1.1Zm0,6.2h1.8v1.1h-1.8Zm.25,3.56v1.1H114.9v-1.1ZM116.44,61h1.8v1.1h-1.8Zm2.41,4.7h-1.74V64.51h1.79Zm0-7.29h-1.74V57.21h1.79Zm0-7.3h-1.74V49.92h1.79Zm.36-8.39H121v1h-1.79Zm0,7.29H121v1.1h-1.79Zm0,7.3H121v1.1h-1.79Zm0,7.29H121v1.1h-1.79Zm-2.1-21.95h1.79v1.07h-1.79Zm-2.16,0h1.78v1.07H115Zm-1.19,3.76h1.79v1.07h-1.79Zm0,7.3h1.79v1.1h-1.79Zm0,7.29h1.79v1.1h-1.79Z"/><rect class="cls-6" x="114.9" y="64.51" width="1.79" height="1.1"/><rect class="cls-6" x="117.06" y="64.51" width="1.79" height="1.1"/><rect class="cls-6" x="119.21" y="64.51" width="1.79" height="1.1"/><rect class="cls-6" x="114.9" y="57.21" width="1.79" height="1.1"/><rect class="cls-6" x="117.06" y="57.21" width="1.79" height="1.1"/><rect class="cls-6" x="119.21" y="57.21" width="1.79" height="1.1"/><rect class="cls-6" x="111.02" y="60.94" width="1.76" height="1.1"/><rect class="cls-6" x="113.71" y="60.94" width="1.79" height="1.1"/><rect class="cls-6" x="116.44" y="60.94" width="1.79" height="1.1"/><rect class="cls-6" x="114.9" y="49.92" width="1.79" height="1.1"/><rect class="cls-6" x="117.06" y="49.92" width="1.79" height="1.1"/><rect class="cls-6" x="119.21" y="49.92" width="1.79" height="1.1"/><rect class="cls-6" x="111.02" y="53.65" width="1.76" height="1.1"/><rect class="cls-6" x="113.71" y="53.65" width="1.79" height="1.1"/><rect class="cls-6" x="116.44" y="53.65" width="1.79" height="1.1"/><rect class="cls-6" x="114.9" y="42.62" width="1.79" height="1.1"/><rect class="cls-6" x="117.06" y="42.62" width="1.79" height="1.1"/><rect class="cls-6" x="119.21" y="42.62" width="1.79" height="1.1"/><rect class="cls-6" x="111.02" y="46.35" width="1.76" height="1.1"/><rect class="cls-6" x="113.71" y="46.35" width="1.79" height="1.1"/><rect class="cls-6" x="116.44" y="46.35" width="1.79" height="1.1"/><polygon class="cls-7" points="111.02 121.29 112.02 121.29 112.02 77.8 116.08 77.8 116.08 121.29 118.77 121.29 118.77 77.8 122.83 77.8 122.83 121.29 124.24 121.29 124.24 71.61 111.02 71.61 111.02 121.29"/><rect class="cls-8" x="111.02" y="67.55" width="13.22" height="4.05"/><rect class="cls-9" x="112.02" y="77.8" width="4.05" height="43.48"/><rect class="cls-10" x="118.76" y="77.8" width="4.05" height="43.48"/><path class="cls-11" d="M111,71.61V35.49H74.35v85.8h2.26v-8.83H80v8.83h3.7v-8.83H87v8.83h3.76v-8.83h3.4v8.83h3.69v-8.83h3.4v8.83H111ZM80,107.33H76.58V89.07H80ZM80,84H76.58V65.68H80Zm0-23.33H76.58V42.29H80ZM101.24,84h-3.4V65.68h3.4Zm0,23.38h-3.4V89.07h3.4Zm-3.4-65.06h3.4V60.62h-3.4Zm-3.69,0V60.62H90.78V42.29ZM90.78,84V65.68h3.4V84ZM87,107.35H83.67V89.07H87ZM87,84H83.67V65.68H87Zm0-23.35H83.67V42.29H87Zm3.76,46.73V89.07h3.4v18.28Z"/><rect class="cls-12" x="76.58" y="112.46" width="3.39" height="8.83"/><rect class="cls-12" x="83.67" y="112.46" width="3.39" height="8.83"/><rect class="cls-12" x="90.76" y="112.46" width="3.39" height="8.83"/><rect class="cls-12" x="97.84" y="112.46" width="3.39" height="8.83"/><rect class="cls-12" x="76.58" y="89.07" width="3.39" height="18.29"/><rect class="cls-12" x="83.67" y="89.07" width="3.39" height="18.29"/><rect class="cls-12" x="90.76" y="89.07" width="3.39" height="18.29"/><rect class="cls-12" x="97.84" y="89.07" width="3.39" height="18.29"/><rect class="cls-12" x="76.58" y="65.68" width="3.39" height="18.29"/><rect class="cls-12" x="83.67" y="65.68" width="3.39" height="18.29"/><rect class="cls-12" x="90.76" y="65.68" width="3.39" height="18.29"/><polygon class="cls-12" points="101.25 65.68 97.85 65.68 97.85 67.55 97.85 71.61 97.85 83.97 101.25 83.97 101.25 65.68"/><rect class="cls-12" x="76.58" y="42.29" width="3.39" height="18.29"/><rect class="cls-12" x="83.67" y="42.29" width="3.39" height="18.29"/><rect class="cls-12" x="90.76" y="42.29" width="3.39" height="18.29"/><rect class="cls-12" x="97.84" y="42.29" width="3.39" height="18.29"/><path class="cls-13" d="M29.46,47.4h16v-.08H74.31v4.29H67.73v4h6.58v4.29H67.73v4h6.58v4.29H67.73v4h6.58V76.4H67.73v4h6.58v4.29H67.73v4h6.58v4.29H67.73v4h6.58v4.29H67.73v4h6.58v4.36H67.73v4h6.58v4.29H67.73v3.57h6.58V2.32H30.61A7.22,7.22,0,0,0,29.5,4.14ZM45.45,6H74.31v4.28H45.43Zm0,8.26H74.31v4.29H45.43Zm0,8.27H74.31v4.28H45.43Zm0,8.26H74.31v4.29H45.43Zm0,8.25H74.31v4.29H45.43Z"/><rect class="cls-14" x="45.43" y="6.01" width="28.88" height="4.29"/><rect class="cls-14" x="45.43" y="14.27" width="28.88" height="4.29"/><rect class="cls-14" x="45.43" y="22.54" width="28.88" height="4.29"/><rect class="cls-14" x="45.43" y="30.8" width="28.88" height="4.29"/><rect class="cls-14" x="45.43" y="39.06" width="28.88" height="4.29"/><polygon class="cls-14" points="60.95 47.4 67.75 47.4 67.75 51.61 74.31 51.61 74.31 47.32 45.44 47.32 45.44 47.4 60.95 47.4"/><rect class="cls-14" x="67.74" y="55.58" width="6.57" height="4.29"/><rect class="cls-14" x="67.74" y="63.85" width="6.57" height="4.29"/><rect class="cls-14" x="67.74" y="72.11" width="6.57" height="4.29"/><rect class="cls-14" x="67.74" y="80.38" width="6.57" height="4.29"/><rect class="cls-14" x="67.74" y="88.64" width="6.57" height="4.29"/><rect class="cls-14" x="67.74" y="96.91" width="6.57" height="4.29"/><rect class="cls-14" x="67.74" y="105.17" width="6.57" height="4.29"/><rect class="cls-14" x="67.74" y="113.43" width="6.57" height="4.29"/><polygon class="cls-15" points="60.95 47.4 45.44 47.4 29.47 47.4 5.22 47.4 5.22 53.84 54.66 53.84 54.66 59.11 5.22 59.11 5.22 62.28 54.66 62.28 54.66 67.55 5.22 67.55 5.22 70.73 54.66 70.73 54.66 76.01 5.22 76.01 5.22 79.17 54.66 79.17 54.66 84.45 5.22 84.45 5.22 87.62 54.66 87.62 54.66 92.89 5.22 92.89 5.22 96.06 54.66 96.06 54.66 101.33 5.22 101.33 5.22 104.5 54.66 104.5 54.66 109.78 5.22 109.78 5.22 112.95 54.66 112.95 54.66 118.22 5.22 118.22 5.22 121.29 60.95 121.29 60.95 47.4"/><polygon class="cls-16" points="67.75 113.43 67.75 109.46 67.75 105.17 67.75 101.19 67.75 96.91 67.75 92.93 67.75 88.64 67.75 84.67 67.75 80.38 67.75 76.4 67.75 72.11 67.75 68.14 67.75 63.85 67.75 59.87 67.75 55.59 67.75 51.61 67.75 47.4 60.95 47.4 60.95 121.29 67.75 121.29 67.75 117.71 67.75 113.43"/><rect class="cls-17" x="5.22" y="53.84" width="49.44" height="5.27"/><rect class="cls-17" x="5.22" y="62.28" width="49.44" height="5.27"/><rect class="cls-17" x="5.22" y="70.73" width="49.44" height="5.27"/><rect class="cls-17" x="5.22" y="79.17" width="49.44" height="5.27"/><rect class="cls-17" x="5.22" y="87.62" width="49.44" height="5.27"/><rect class="cls-17" x="5.22" y="96.06" width="49.44" height="5.27"/><rect class="cls-17" x="5.22" y="104.5" width="49.44" height="5.27"/><rect class="cls-17" x="5.22" y="112.95" width="49.44" height="5.27"/></g></g></g></g></g></svg>