<svg xmlns="http://www.w3.org/2000/svg" viewBox="0 0 114.05 135.64"><defs><style>.cls-1{fill:#b2b7df;}.cls-2{fill:#8087c0;}.cls-3{fill:#6d6cb1;}.cls-4{fill:#fbdbc7;}.cls-5{fill:#f9dac8;}</style></defs><g id="Layer_2" data-name="Layer 2"><g id="Layer_1-2" data-name="Layer 1"><g id="o9pOYV.tif"><path class="cls-1" d="M1.24,133.71c-.41-1.32-.83-2.63-1.24-4q0-61,0-121.95C1.25,1.88,3.35,0,9.24,0Q57,0,104.82,0C111.27,0,114,2.79,114,9.25q0,58.91,0,117.83a18.94,18.94,0,0,1-1.2,6.64Zm36.6-92.66c-2-.63-3.09.26-4.19.87C14.81,52.39,6.86,77.24,16.11,96.63c10,20.93,33.29,30.42,54.05,21.73,8.93-3.74,16.61-9.32,21.65-17.9.63-1.06,1.31-2.84.85-3.66-.86-1.53-2.32-.11-3.44.32A48.58,48.58,0,0,1,69,100.07c-15.82-.94-33.09-17.65-35.07-33.32C32.74,57.78,34.64,49.53,37.84,41.05ZM89.36,75.52c3.17-8.33,7.69-13.45,16-16.46C97.26,55.39,92.91,50,89,42.53c-2.17,9.28-8.11,13.35-16.46,16.78C81.58,61.67,86.55,66.48,89.36,75.52ZM53.62,56.67c-1.42,4.09-4,6.69-8.46,9,5,1,6.57,4.69,9.37,7.61A18.55,18.55,0,0,1,61.67,65C57.59,63.45,55.9,60.25,53.62,56.67ZM70.15,28.2c-3.26-2.14-6.22-3.83-8.28-7.59-1.5,4.23-5.19,5.38-7.95,8.15,3.6,1.31,5.24,4.91,7.61,5.73,3,1,3.6-4.72,7-5.27C69,29.15,69.38,28.72,70.15,28.2Z"/><path class="cls-2" d="M.8,132.72H113.35a5.38,5.38,0,0,1-3.74,2.9H4.54A4.78,4.78,0,0,1,.8,132.72Z"/><path class="cls-3" d="M37.84,41.05c-3.2,8.48-5.1,16.73-4,25.7,2,15.67,19.25,32.38,35.07,33.32a48.58,48.58,0,0,0,20.27-2.95c1.12-.43,2.58-1.85,3.44-.32.46.82-.22,2.6-.85,3.66-5,8.58-12.72,14.16-21.65,17.9-20.76,8.69-44-.8-54-21.73-9.25-19.39-1.3-44.24,17.54-54.71C34.75,41.31,35.84,40.42,37.84,41.05Z"/><path class="cls-4" d="M89.36,75.52c-2.81-9-7.78-13.85-16.81-16.21C80.9,55.88,86.84,51.81,89,42.53c3.9,7.47,8.25,12.86,16.39,16.53C97.05,62.07,92.53,67.19,89.36,75.52Z"/><path class="cls-5" d="M53.62,56.67c2.28,3.58,4,6.78,8.05,8.32a18.55,18.55,0,0,0-7.14,8.24c-2.8-2.92-4.36-6.57-9.37-7.61C49.63,63.36,52.2,60.76,53.62,56.67Z"/><path class="cls-5" d="M61.89,19.33c2.47,3.87,4.28,7.32,8.68,9a20,20,0,0,0-7.7,8.88c-3-3.15-4.7-7.09-10.11-8.21C57.59,26.54,60.36,23.74,61.89,19.33Z"/></g></g></g></svg>