<svg xmlns="http://www.w3.org/2000/svg" viewBox="0 0 133.5 133.6"><defs><style>.cls-1{fill:#2c3a68;}.cls-2{fill:none;}.cls-3{fill:#5351a2;}.cls-4{fill:#eee6ca;}.cls-5{fill:#5b6ab2;}.cls-6{fill:#6d7abb;}.cls-7{fill:#fee0c0;}.cls-8{fill:#4e61ac;}.cls-9{fill:#8da8d7;}.cls-10{fill:#f8e1c0;}.cls-11{fill:#6c6bb1;}.cls-12{fill:#f9e0c3;}.cls-13{fill:#a6a5d2;}.cls-14{fill:#9392c7;}.cls-15{fill:#feddc7;}.cls-16{fill:#586ca5;}</style></defs><g id="Layer_2" data-name="Layer 2"><g id="Layer_1-2" data-name="Layer 1"><rect class="cls-1" width="133.5" height="133.5"/><path class="cls-2" d="M29.24,55V9A7.77,7.77,0,0,1,30.42,7h-27V55Z"/><polygon class="cls-2" points="110.25 42.35 115.97 42.35 115.97 42.35 115.97 46.44 130.04 46.44 130.04 7.02 76.94 7.02 76.94 42.35 110.25 42.35"/><path class="cls-3" d="M116,53.9h1.87v1.17H116v6.59h1.87v1.17H116v6.59h1.87v1.17H116v5.86H130v-30H116Zm6,20.48h-1.9V73.21H122Zm0-16.69v1.17h-1.9V57.69Zm-.26-2.62V53.9h1.9v1.17Zm0,6.59h1.9v1.17h-1.9Zm.26,3.79v1.17h-1.9V65.45Zm-.26,4h1.9v1.17h-1.9Zm2.55,5h-1.9V73.21h1.9Zm0-7.76h-1.9V65.45h1.9Zm0-7.76h-1.9V57.69h1.9Zm.39-8.93h1.9V51.1h-1.9Zm0,7.76h1.9v1.17h-1.9Zm0,7.76h1.9v1.17h-1.9Zm0,7.76h1.9v1.17h-1.9ZM122.4,49.93h1.9V51.1h-1.9Zm-2.29,0H122V51.1h-1.9Zm-1.26,4h1.9v1.17h-1.9Zm0,7.76h1.9v1.17h-1.9Zm0,7.76h1.9v1.17h-1.9Z"/><rect class="cls-4" x="120.11" y="73.21" width="1.9" height="1.17"/><rect class="cls-4" x="122.4" y="73.21" width="1.9" height="1.17"/><rect class="cls-4" x="124.69" y="73.21" width="1.9" height="1.17"/><rect class="cls-4" x="120.11" y="65.45" width="1.9" height="1.17"/><rect class="cls-4" x="122.4" y="65.45" width="1.9" height="1.17"/><rect class="cls-4" x="124.69" y="65.45" width="1.9" height="1.17"/><rect class="cls-4" x="115.97" y="69.42" width="1.87" height="1.17"/><rect class="cls-4" x="118.85" y="69.42" width="1.9" height="1.17"/><rect class="cls-4" x="121.75" y="69.42" width="1.9" height="1.17"/><rect class="cls-4" x="120.11" y="57.69" width="1.9" height="1.17"/><rect class="cls-4" x="122.4" y="57.69" width="1.9" height="1.17"/><rect class="cls-4" x="124.69" y="57.69" width="1.9" height="1.17"/><rect class="cls-4" x="115.97" y="61.66" width="1.87" height="1.17"/><rect class="cls-4" x="118.85" y="61.66" width="1.9" height="1.17"/><rect class="cls-4" x="121.75" y="61.66" width="1.9" height="1.17"/><rect class="cls-4" x="120.11" y="49.93" width="1.9" height="1.17"/><rect class="cls-4" x="122.4" y="49.93" width="1.9" height="1.17"/><rect class="cls-4" x="124.69" y="49.93" width="1.9" height="1.17"/><rect class="cls-4" x="115.97" y="53.9" width="1.87" height="1.17"/><rect class="cls-4" x="118.85" y="53.9" width="1.9" height="1.17"/><rect class="cls-4" x="121.75" y="53.9" width="1.9" height="1.17"/><polygon class="cls-5" points="115.97 133.6 117.06 133.6 117.06 87.35 121.36 87.35 121.36 133.6 124.22 133.6 124.22 87.35 128.53 87.35 128.53 133.6 130.04 133.6 130.04 80.76 115.97 80.76 115.97 133.6"/><rect class="cls-6" x="115.97" y="76.45" width="14.06" height="4.31"/><rect class="cls-7" x="117.05" y="87.35" width="4.31" height="46.25"/><rect class="cls-8" x="124.22" y="87.35" width="4.31" height="46.25"/><path class="cls-9" d="M116,80.76V42.35h-39V133.6h2.41v-9.39H83v9.39h3.93v-9.39H90.5v9.39h3.93v-9.39H98v9.39H102v-9.39h3.61v9.39H116Zm-33,38H79.35V99.33H83Zm0-24.87H79.35V74.46H83ZM83,69H79.35V49.58H83Zm22.62,24.88H102V74.46h3.61Zm0,24.87H102V99.33h3.61ZM102,49.58h3.61V69H102Zm-3.93,0V69H94.43V49.58ZM94.43,93.91V74.46H98V93.91ZM90.5,118.78H86.89V99.33H90.5Zm0-24.87H86.89V74.46H90.5ZM90.5,69H86.89V49.58H90.5Zm3.93,49.75V99.33H98v19.45Z"/><rect class="cls-10" x="79.35" y="124.21" width="3.61" height="9.39"/><rect class="cls-10" x="86.89" y="124.21" width="3.61" height="9.39"/><rect class="cls-10" x="94.43" y="124.21" width="3.61" height="9.39"/><rect class="cls-10" x="101.97" y="124.21" width="3.61" height="9.39"/><rect class="cls-10" x="79.35" y="99.33" width="3.61" height="19.45"/><rect class="cls-10" x="86.89" y="99.33" width="3.61" height="19.45"/><rect class="cls-10" x="94.43" y="99.33" width="3.61" height="19.45"/><rect class="cls-10" x="101.97" y="99.33" width="3.61" height="19.45"/><rect class="cls-10" x="79.35" y="74.46" width="3.61" height="19.45"/><rect class="cls-10" x="86.89" y="74.46" width="3.61" height="19.45"/><rect class="cls-10" x="94.43" y="74.46" width="3.61" height="19.45"/><polygon class="cls-10" points="105.58 74.46 101.97 74.46 101.97 76.45 101.97 80.76 101.97 93.91 105.58 93.91 105.58 74.46"/><rect class="cls-10" x="79.35" y="49.58" width="3.61" height="19.45"/><rect class="cls-10" x="86.89" y="49.58" width="3.61" height="19.45"/><rect class="cls-10" x="94.43" y="49.58" width="3.61" height="19.45"/><rect class="cls-10" x="101.97" y="49.58" width="3.61" height="19.45"/><path class="cls-11" d="M29.24,55h17v-.08H76.94v4.56H70v4.23h7v4.56H70v4.23h7v4.56H70V81.3h7v4.56H70v4.23h7v4.56H70v4.23h7v4.56H70v4.23h7v4.56H70v4.23h7V121H70v4.22h7v4.56H70v3.8h7V7H30.42A7.77,7.77,0,0,0,29.24,9Zm17-44H76.94v4.56H46.22Zm0,8.79H76.94v4.56H46.22Zm0,8.79H76.94v4.56H46.22Zm0,8.79H76.94v4.56H46.22Zm0,8.78H76.94V50.7H46.22Z"/><rect class="cls-12" x="46.22" y="10.99" width="30.72" height="4.56"/><rect class="cls-12" x="46.22" y="19.78" width="30.72" height="4.56"/><rect class="cls-12" x="46.22" y="28.57" width="30.72" height="4.56"/><rect class="cls-12" x="46.22" y="37.36" width="30.72" height="4.56"/><rect class="cls-12" x="46.22" y="46.14" width="30.72" height="4.56"/><polygon class="cls-12" points="62.72 55.01 69.95 55.01 69.95 59.49 76.94 59.49 76.94 54.93 46.22 54.93 46.22 55.01 62.72 55.01"/><rect class="cls-12" x="69.95" y="63.72" width="6.99" height="4.56"/><rect class="cls-12" x="69.95" y="72.51" width="6.99" height="4.56"/><rect class="cls-12" x="69.95" y="81.3" width="6.99" height="4.56"/><rect class="cls-12" x="69.95" y="90.09" width="6.99" height="4.56"/><rect class="cls-12" x="69.95" y="98.88" width="6.99" height="4.56"/><rect class="cls-12" x="69.95" y="107.67" width="6.99" height="4.56"/><rect class="cls-12" x="69.95" y="116.46" width="6.99" height="4.56"/><rect class="cls-12" x="69.95" y="125.24" width="6.99" height="4.56"/><polygon class="cls-13" points="62.72 55.01 46.22 55.01 29.25 55.01 3.46 55.01 3.46 61.86 56.03 61.86 56.03 67.47 3.46 67.47 3.46 70.84 56.03 70.84 56.03 76.45 3.46 76.45 3.46 79.83 56.03 79.83 56.03 85.44 3.46 85.44 3.46 88.81 56.03 88.81 56.03 94.42 3.46 94.42 3.46 97.79 56.03 97.79 56.03 103.4 3.46 103.4 3.46 106.77 56.03 106.77 56.03 112.38 3.46 112.38 3.46 115.75 56.03 115.75 56.03 121.36 3.46 121.36 3.46 124.73 56.03 124.73 56.03 130.34 3.46 130.34 3.46 133.6 62.72 133.6 62.72 55.01"/><polygon class="cls-14" points="69.95 125.24 69.95 121.02 69.95 116.46 69.95 112.23 69.95 107.67 69.95 103.44 69.95 98.88 69.95 94.65 69.95 90.09 69.95 85.86 69.95 81.3 69.95 77.07 69.95 72.51 69.95 68.28 69.95 63.72 69.95 59.49 69.95 55.01 62.72 55.01 62.72 133.6 69.95 133.6 69.95 129.8 69.95 125.24"/><rect class="cls-15" x="3.46" y="61.86" width="52.58" height="5.61"/><rect class="cls-15" x="3.46" y="70.84" width="52.58" height="5.61"/><rect class="cls-15" x="3.46" y="79.83" width="52.58" height="5.61"/><rect class="cls-15" x="3.46" y="88.81" width="52.58" height="5.61"/><rect class="cls-15" x="3.46" y="97.79" width="52.58" height="5.61"/><rect class="cls-15" x="3.46" y="106.77" width="52.58" height="5.61"/><rect class="cls-15" x="3.46" y="115.75" width="52.58" height="5.61"/><rect class="cls-15" x="3.46" y="124.73" width="52.58" height="5.61"/><rect class="cls-16" y="129.8" width="133.5" height="3.8"/></g></g></svg>