<svg id="Layer_1" data-name="Layer 1" xmlns="http://www.w3.org/2000/svg" viewBox="0 0 100.49 103.52"><defs><style>.cls-1{fill:#656f74;}.cls-2{fill:#dfebf1;}.cls-3{fill:#cadde8;}.cls-4{fill:#fff;stroke:#fff;stroke-miterlimit:10;stroke-width:7px;}.cls-5{fill:#407d96;}</style></defs><g id="Timer"><rect class="cls-1" y="2.89" width="100.49" height="100.49" rx="7.61"/><rect class="cls-2" width="100.49" height="100.49" rx="7.61"/><rect class="cls-3" y="-11.86" width="100.49" height="113.9" rx="8.1"/><path d="M37.27,22.47a12,12,0,0,1-1.7.11,4.09,4.09,0,0,1-1.11-.09.33.33,0,0,1-.24-.31V13.57c0-.24.27-.45.81-.64a5.28,5.28,0,0,1,1.76-.29c.89,0,1.33.21,1.33.63v3.08h1.25V13.57c0-.24.27-.45.82-.64A5.3,5.3,0,0,1,42,12.64c.87,0,1.31.21,1.31.63v8.91c0,.12-.28.22-.85.29a12.27,12.27,0,0,1-1.71.11,4.1,4.1,0,0,1-1.1-.09.33.33,0,0,1-.24-.31V19H38.12v3.21C38.12,22.3,37.84,22.4,37.27,22.47Z"/><path d="M48,19.42c0,.61.28.91.86.91A3.55,3.55,0,0,0,50.19,20l.85-.35c.18,0,.41.27.7.8a2.93,2.93,0,0,1,.44,1.18c0,.36-.38.64-1.12.82a8.89,8.89,0,0,1-2.19.28,8.33,8.33,0,0,1-1.8-.16,4.73,4.73,0,0,1-1.17-.43,3.31,3.31,0,0,1-.8-.64,3,3,0,0,1-.51-.72,4,4,0,0,1-.27-.76,6,6,0,0,1-.14-1.28c0-1.69.45-2.87,1.33-3.51A4,4,0,0,1,47,14.53a8.31,8.31,0,0,1,1.92-.19q3.54,0,3.54,2.46,0,2.63-4,2.62Zm0-2v.92a.81.81,0,0,0,.66-.32,1.25,1.25,0,0,0,.26-.79c0-.56-.14-.84-.43-.84S48,16.69,48,17.38Z"/><path d="M57.06,12.31v9.94c0,.1-.26.18-.79.24a14.8,14.8,0,0,1-1.65.09,4.89,4.89,0,0,1-1.09-.07c-.17-.05-.25-.14-.25-.26V12.56c0-.21.27-.41.79-.6a4.79,4.79,0,0,1,1.7-.3C56.63,11.66,57.06,11.88,57.06,12.31Z"/><path d="M58,24.28V15.37c0-.19.26-.39.79-.6a4.66,4.66,0,0,1,1.69-.31,1.91,1.91,0,0,1,.66.1c.16.07.26.13.29.2a4.41,4.41,0,0,1,.21.84h.12a.92.92,0,0,1,.25-.39,2.64,2.64,0,0,1,.45-.44,2.5,2.5,0,0,1,.67-.3,3.44,3.44,0,0,1,1-.13,2.11,2.11,0,0,1,1.06.26,2,2,0,0,1,.71.6,2.92,2.92,0,0,1,.36.87,4.41,4.41,0,0,1,.15.84c0,.21,0,.51,0,.91s0,.79,0,1.17a10.19,10.19,0,0,1-.15,1.19,4.31,4.31,0,0,1-.32,1,3.52,3.52,0,0,1-.53.79,2.47,2.47,0,0,1-1.89.7,2.2,2.2,0,0,1-.8-.14,1.53,1.53,0,0,1-.51-.31,1.44,1.44,0,0,1-.4-.67l0-.14h-.11l.2,1.26v1.58q0,.15-.81.24a14.67,14.67,0,0,1-1.65.09,5.54,5.54,0,0,1-1.13-.07C58.14,24.49,58,24.4,58,24.28Zm4.53-7.46c-.09-.32-.21-.48-.38-.48a.39.39,0,0,0-.37.28v3.67c0,.24.13.36.38.36s.49-.72.49-2.17A7.73,7.73,0,0,0,62.57,16.82Z"/></g><path class="cls-4" d="M38.67,56.51c-1.19,0-2.23-1.42-3.1-4.25a27.53,27.53,0,0,1-1.31-8.16c0-.6.66-1.27,2-2a22,22,0,0,1,6-2A41.49,41.49,0,0,1,51,39.23q18.38,0,18.37,12.8a12.64,12.64,0,0,1-1.5,6.31,9.94,9.94,0,0,1-3.62,3.87,17.11,17.11,0,0,1-7.87,2.43l-1.47.06a11.77,11.77,0,0,0,.32,2.24,13.71,13.71,0,0,1,.32,2.69c0,.69-1.17,1.21-3.49,1.57a40.32,40.32,0,0,1-6,.54q-3.9,0-4.83-1.92c-.62-1.28-.93-4-.93-8.12q0-1.47,5.51-2.18a10.21,10.21,0,0,0,3.74-1.34,3.16,3.16,0,0,0,1.7-2.82c0-1.19-1-1.79-2.88-1.79A14.37,14.37,0,0,0,42.29,55,19,19,0,0,1,38.67,56.51Zm10,17.41A15.65,15.65,0,0,1,55.38,75c1.53.75,2.3,2.29,2.3,4.64q0,5.76-9,5.76t-9-5.76Q39.76,73.92,48.72,73.92Z"/><path class="cls-5" d="M38.65,56.51c-1.2,0-2.23-1.42-3.11-4.25a27.85,27.85,0,0,1-1.31-8.16c0-.6.66-1.27,2-2a21.89,21.89,0,0,1,6-2A41.59,41.59,0,0,1,51,39.23q18.36,0,18.37,12.8a12.54,12.54,0,0,1-1.51,6.31,9.93,9.93,0,0,1-3.61,3.87,17.11,17.11,0,0,1-7.87,2.43l-1.48.06a12.67,12.67,0,0,0,.32,2.24,13,13,0,0,1,.32,2.69c0,.69-1.16,1.21-3.48,1.57a40.43,40.43,0,0,1-6.05.54q-3.91,0-4.83-1.92c-.62-1.28-.93-4-.93-8.12q0-1.47,5.5-2.18a10.26,10.26,0,0,0,3.75-1.34,3.15,3.15,0,0,0,1.69-2.82c0-1.19-1-1.79-2.88-1.79A14.41,14.41,0,0,0,42.26,55,19.08,19.08,0,0,1,38.65,56.51ZM48.7,73.92A15.57,15.57,0,0,1,55.35,75c1.54.75,2.31,2.29,2.31,4.64q0,5.76-9,5.76t-9-5.76Q39.74,73.92,48.7,73.92Z"/></svg>