<svg id="Layer_1" data-name="Layer 1" xmlns="http://www.w3.org/2000/svg" viewBox="0 0 218.34 249.92"><defs><style>.cls-1{fill:#cd804a;}.cls-2{fill:#b16f42;}.cls-3{fill:#525252;opacity:0.5;}.cls-4{fill:#9e6f42;}.cls-5,.cls-8{fill:#407d96;}.cls-6{fill:#dfebf1;}.cls-7{fill:#6697ab;}.cls-8{stroke:#407d96;stroke-miterlimit:10;stroke-width:7px;}.cls-9{fill:#fff;}</style></defs><path class="cls-1" d="M109.39-16.6h0a7.44,7.44,0,0,0-3.28.79v264.3a5.27,5.27,0,0,0,1,.11h4.48a5.35,5.35,0,0,0,1.39-.18v-264A7.32,7.32,0,0,0,109.39-16.6Z"/><path class="cls-1" d="M102.06-11.8V245.66a6.6,6.6,0,0,0,4,2.83V-15.81A9.76,9.76,0,0,0,102.06-11.8Z"/><path class="cls-2" d="M102.06-11.8V245.66a6.6,6.6,0,0,0,4,2.83V-15.81A9.76,9.76,0,0,0,102.06-11.8Z"/><path class="cls-1" d="M116.69,245.72V-11.86A9.81,9.81,0,0,0,113-15.62v264A6.73,6.73,0,0,0,116.69,245.72Z"/><path class="cls-2" d="M116.69,245.72V-11.86A9.81,9.81,0,0,0,113-15.62v264A6.73,6.73,0,0,0,116.69,245.72Z"/><path class="cls-1" d="M118.43,240v-245a13.64,13.64,0,0,0-1.74-6.77V245.72A10,10,0,0,0,118.43,240Z"/><path class="cls-3" d="M118.43,240v-245a13.64,13.64,0,0,0-1.74-6.77V245.72A10,10,0,0,0,118.43,240Z"/><path class="cls-4" d="M118.43,240v-245a13.64,13.64,0,0,0-1.74-6.77V245.72A10,10,0,0,0,118.43,240Z"/><path class="cls-1" d="M100.36,239.94a10.07,10.07,0,0,0,1.7,5.72V-11.8a13.63,13.63,0,0,0-1.7,6.71Z"/><path class="cls-3" d="M100.36,239.94a10.07,10.07,0,0,0,1.7,5.72V-11.8a13.63,13.63,0,0,0-1.7,6.71Z"/><path class="cls-4" d="M100.36,239.94a10.07,10.07,0,0,0,1.7,5.72V-11.8a13.63,13.63,0,0,0-1.7,6.71Z"/><g id="Timer"><rect class="cls-5" x="2.02" y="130.5" width="215.11" height="100.49" rx="11.14"/><rect class="cls-6" x="2.02" y="127.61" width="215.11" height="100.49" rx="11.14"/><rect class="cls-7" x="2.02" y="115.75" width="215.11" height="113.9" rx="11.86"/></g><path class="cls-8" d="M40.91,166.33a4.32,4.32,0,0,1-1.57-.18,1,1,0,0,1-.53-.6L33.29,150.3c0-.31.59-.68,1.79-1.1a11,11,0,0,1,3.61-.62c1.57,0,2.4.49,2.5,1.47L42,158h.35l.7-7.93c.08-1,1.21-1.47,3.37-1.47a2.86,2.86,0,0,1,1.68.34,1.21,1.21,0,0,1,.47.88l.83,8.18h.35l.65-7.93c.05-.48.62-.85,1.71-1.1a14.53,14.53,0,0,1,3.25-.37,3.71,3.71,0,0,1,2.2.47,1.33,1.33,0,0,1,.59,1l-5.35,15.5c-.19.52-1.42.78-3.7.78a3.48,3.48,0,0,1-1.38-.18.89.89,0,0,1-.47-.6L46,161.2h-.3l-1.33,4.35Q44.14,166.33,40.91,166.33Z"/><path class="cls-8" d="M64.06,166.55a5.41,5.41,0,0,1-3.57-1.07,3.54,3.54,0,0,1-.91-1.33,5,5,0,0,1-.39-2.05,3.77,3.77,0,0,1,.56-2,4.27,4.27,0,0,1,1.36-1.35,8.11,8.11,0,0,1,1.88-.77,14.2,14.2,0,0,1,3.57-.43h.83a1.58,1.58,0,0,0-.7-1.45,2,2,0,0,0-.91-.17,4.5,4.5,0,0,0-1.48.32,9.85,9.85,0,0,0-1.44.67,2.1,2.1,0,0,1-.77.33c-.3,0-.71-.39-1.23-1.18a4.12,4.12,0,0,1-.77-2.17c0-.21.31-.5.92-.85a11.07,11.07,0,0,1,2.62-1,13.11,13.11,0,0,1,3.28-.44,12.43,12.43,0,0,1,2.77.27,8.27,8.27,0,0,1,1.9.63,4.06,4.06,0,0,1,1.25,1,6.9,6.9,0,0,1,.77,1.13,4.27,4.27,0,0,1,.39,1.3,13.14,13.14,0,0,1,.17,2.27v7.53c0,.18-.44.33-1.33.44a24,24,0,0,1-2.65.16,11.23,11.23,0,0,1-1.7-.08c-.26-.05-.42-.1-.47-.17a.87.87,0,0,1-.12-.35l-.2-1.43h-.2C67.07,165.8,65.93,166.55,64.06,166.55Zm3.35-4.15v-2.92a1.24,1.24,0,0,0-1,.55,2.12,2.12,0,0,0-.4,1.25q0,1.65.75,1.65a.83.83,0,0,0,.52-.16A.49.49,0,0,0,67.41,162.4Z"/><path class="cls-8" d="M79.39,146.83a5.63,5.63,0,0,1,2.59.49,1.8,1.8,0,0,1,.93,1.76c0,1.5-1.16,2.25-3.5,2.25s-3.5-.75-3.5-2.25S77.07,146.83,79.39,146.83Zm3.4,6.57v12.33c0,.18-.48.33-1.44.44a28.38,28.38,0,0,1-2.95.16,8.37,8.37,0,0,1-2-.14c-.29-.09-.44-.24-.44-.46V153.85c0-.36.47-.73,1.42-1.08a8.56,8.56,0,0,1,3.08-.54Q82.79,152.23,82.79,153.4Z"/><path class="cls-8" d="M94.49,166.1a3.22,3.22,0,0,1-2,.43,13.85,13.85,0,0,1-2.65-.21,5.73,5.73,0,0,1-2-.84Q86,164.25,86,160.38v-3.9H84.71c-.18,0-.34-.19-.47-.58a4.71,4.71,0,0,1-.2-1.57,4.54,4.54,0,0,1,.31-1.76c.21-.51.48-.77.81-.77H86v-3c0-.52.51-.93,1.52-1.25a9.69,9.69,0,0,1,3-.48c1.51,0,2.27.38,2.27,1.13v3.62h1.85c.44,0,.65.63.65,1.88a6,6,0,0,1-.28,2c-.2.53-.44.79-.74.79H92.71v4.57a1,1,0,0,0,.58,1,2.31,2.31,0,0,0,1,.28.51.51,0,0,1,.54.43,6.46,6.46,0,0,1,.1,1.27A3.15,3.15,0,0,1,94.49,166.1Z"/><path class="cls-8" d="M100.19,146.83a5.56,5.56,0,0,1,2.58.49,1.79,1.79,0,0,1,.94,1.76c0,1.5-1.16,2.25-3.5,2.25s-3.5-.75-3.5-2.25S97.87,146.83,100.19,146.83Zm3.4,6.57v12.33c0,.18-.48.33-1.44.44a28.38,28.38,0,0,1-3,.16,8.37,8.37,0,0,1-2-.14c-.29-.09-.44-.24-.44-.46V153.85c0-.36.47-.73,1.42-1.08a8.56,8.56,0,0,1,3.08-.54Q103.59,152.23,103.59,153.4Z"/><path class="cls-8" d="M120.54,158v7.7c0,.18-.48.33-1.43.44a28,28,0,0,1-2.93.16,8.37,8.37,0,0,1-2-.14c-.3-.09-.44-.24-.44-.46v-7.95a7.56,7.56,0,0,0-.09-1.48c-.06-.23-.11-.44-.16-.62a.64.64,0,0,0-.63-.48.61.61,0,0,0-.7.68v9.85c0,.18-.47.33-1.41.44a27.7,27.7,0,0,1-2.93.16,8.6,8.6,0,0,1-2-.14c-.3-.09-.45-.24-.45-.46V153.4q0-.53,1.44-1.05a8.79,8.79,0,0,1,3-.52c1.06,0,1.66.31,1.8.92l.22,1.1h.18a4,4,0,0,1,2.5-2,5.33,5.33,0,0,1,1.6-.23c1.68,0,2.82.51,3.41,1.52A10.14,10.14,0,0,1,120.54,158Z"/><path class="cls-8" d="M130.64,164.68v-1.45h-.2a2.4,2.4,0,0,1-.35.31,5,5,0,0,1-1.24.51,7,7,0,0,1-2.22.33,5.14,5.14,0,0,1-2.09-.38,3.67,3.67,0,0,1-1.33-.93,4.32,4.32,0,0,1-.75-1.52,15.12,15.12,0,0,1-.42-4,7.1,7.1,0,0,1,1.22-4.45,3.75,3.75,0,0,1,1.42-1.06,4.69,4.69,0,0,1,2-.44,5.52,5.52,0,0,1,1.77.24,3,3,0,0,1,1,.56,2.56,2.56,0,0,1,.8,1.23l0,.22h.2l.22-1c.17-.7,1.49-1,4-1,1.1,0,1.77.17,2,.5a1.43,1.43,0,0,1,.25.56,4,4,0,0,1,0,.79v10.47a5.44,5.44,0,0,1-1.92,4.5,8.83,8.83,0,0,1-5.65,1.55q-4,0-5.38-.77c-.41-.24-.62-.48-.62-.73a7.21,7.21,0,0,1,.49-2c.32-1,.62-1.43.91-1.43a4.76,4.76,0,0,1,.7.18,12.8,12.8,0,0,0,3.09.5,3,3,0,0,0,1.6-.3A1.11,1.11,0,0,0,130.64,164.68Zm-1-3.15a.59.59,0,0,0,.45-.2.68.68,0,0,0,.17-.45v-5.15c-.06-.35-.25-.53-.55-.53-.63,0-1,1.05-1,3.13a9,9,0,0,0,.24,2.32C129.16,161.24,129.37,161.53,129.64,161.53Z"/><path class="cls-8" d="M152.46,158.08v7.65c0,.18-.46.33-1.37.44a31.63,31.63,0,0,1-3.38.16c-1.33,0-2-.2-2-.6v-7.65h-1.27c-.45,0-.68-.76-.68-2.28a4.64,4.64,0,0,1,.31-1.68c.21-.53.48-.79.82-.79h.82a8,8,0,0,1,.49-2.93,4.67,4.67,0,0,1,2.84-3,8.52,8.52,0,0,1,3.3-.6q4.65,0,4.65,1.52a9.2,9.2,0,0,1-.33,2.7c-.21.7-.51,1-.87,1a3.87,3.87,0,0,1-.84-.16,4.49,4.49,0,0,0-1.16-.16c-1,0-1.45.33-1.45,1a1.48,1.48,0,0,0,.12.55h3.33c.45,0,.67.73.67,2.2a4.89,4.89,0,0,1-.29,1.76c-.19.53-.44.79-.76.79Z"/><path class="cls-8" d="M166.06,166.55a14.29,14.29,0,0,1-3.22-.32,6.65,6.65,0,0,1-2.45-1.15q-2.28-1.65-2.28-6.15,0-4,2.33-5.73a9.28,9.28,0,0,1,5.62-1.6,20.09,20.09,0,0,1,2.53.14,8.3,8.3,0,0,1,2.13.59,4.54,4.54,0,0,1,1.75,1.22,5.87,5.87,0,0,1,1.09,2.14,10.73,10.73,0,0,1,.43,3.24,7.25,7.25,0,0,1-2.15,5.71A8.36,8.36,0,0,1,166.06,166.55Zm-.87-4.87a2.24,2.24,0,0,0,.36,1.07.68.68,0,0,0,.5.18.7.7,0,0,0,.5-.18,2.4,2.4,0,0,0,.35-1.07,13,13,0,0,0,.16-2.26q0-1.36-.06-2.1a8.66,8.66,0,0,0-.15-1.14,1.88,1.88,0,0,0-.24-.63.66.66,0,0,0-.54-.32.7.7,0,0,0-.51.19,2.38,2.38,0,0,0-.37,1.1,18.58,18.58,0,0,0,0,5.16Z"/><path class="cls-8" d="M182.24,158.43v7.3c0,.18-.47.33-1.42.44a27.51,27.51,0,0,1-2.92.16,8.54,8.54,0,0,1-2-.14c-.3-.09-.45-.24-.45-.46V153.4q0-.47,1.38-1a8.12,8.12,0,0,1,3-.55c1.09,0,1.7.3,1.84.9l.25,1.15h.17a3.15,3.15,0,0,1,1.68-1.61,5.75,5.75,0,0,1,2.65-.67,3.1,3.1,0,0,1,1.86.43,1.31,1.31,0,0,1,.54,1.09c0,.44,0,1-.1,1.68a10.73,10.73,0,0,1-.49,2.23c-.26.8-.6,1.2-1,1.2a10.36,10.36,0,0,1-1.58-.38,8.3,8.3,0,0,0-2.19-.37c-.57,0-.93.08-1.07.25A1.06,1.06,0,0,0,182.24,158.43Z"/><path class="cls-8" d="M44.18,196.55a14.73,14.73,0,0,1-3.57-.38,7.22,7.22,0,0,1-2.73-1.39c-1.69-1.32-2.53-3.84-2.53-7.58a11.18,11.18,0,0,1,.69-4.1A6.73,6.73,0,0,1,38,180.33a9.43,9.43,0,0,1,6.23-2,15,15,0,0,1,3.43.35A8,8,0,0,1,50.38,180Q53,181.86,53,187.2q0,4.8-2.37,7.08A8.94,8.94,0,0,1,44.18,196.55Zm-.83-4.28a1.13,1.13,0,0,0,1.65,0,3.66,3.66,0,0,0,.5-1.55,21.69,21.69,0,0,0,.2-3.32,20.78,20.78,0,0,0-.2-3.27,3.37,3.37,0,0,0-.5-1.5,1.15,1.15,0,0,0-1.65,0,3.37,3.37,0,0,0-.5,1.5,20.78,20.78,0,0,0-.2,3.27,21.69,21.69,0,0,0,.2,3.32A3.66,3.66,0,0,0,43.35,192.27Z"/><path class="cls-8" d="M54.5,199.35v-15.9c0-.35.47-.7,1.4-1.07a8.12,8.12,0,0,1,3-.55,3.29,3.29,0,0,1,1.17.17,1.22,1.22,0,0,1,.53.35,10.48,10.48,0,0,1,.37,1.5h.2a2,2,0,0,1,.45-.7,5.22,5.22,0,0,1,.81-.77,4.17,4.17,0,0,1,1.19-.54,6.15,6.15,0,0,1,1.81-.24,3.89,3.89,0,0,1,1.89.47,3.31,3.31,0,0,1,1.26,1.07,4.92,4.92,0,0,1,.65,1.55,9.52,9.52,0,0,1,.28,1.5c0,.38,0,.92,0,1.63s0,1.41-.08,2.1a20,20,0,0,1-.27,2.11,7.61,7.61,0,0,1-.58,1.85,5.86,5.86,0,0,1-1,1.4,4.37,4.37,0,0,1-3.37,1.25,3.88,3.88,0,0,1-1.42-.24,2.37,2.37,0,0,1-.91-.56,2.53,2.53,0,0,1-.72-1.2l0-.25h-.2l.35,2.25v2.82c0,.19-.48.33-1.44.44a25.87,25.87,0,0,1-3,.16,9.51,9.51,0,0,1-2-.13C54.67,199.72,54.5,199.57,54.5,199.35ZM62.58,186c-.15-.57-.38-.85-.68-.85a.68.68,0,0,0-.65.5v6.55c0,.43.23.65.68.65s.87-1.29.87-3.88A13.41,13.41,0,0,0,62.58,186Z"/><path class="cls-8" d="M71.07,199.35v-15.9c0-.35.47-.7,1.41-1.07a8.11,8.11,0,0,1,3-.55,3.29,3.29,0,0,1,1.17.17,1.16,1.16,0,0,1,.53.35,9.14,9.14,0,0,1,.37,1.5h.2a2.25,2.25,0,0,1,.46-.7,4.46,4.46,0,0,1,.81-.77,4,4,0,0,1,1.19-.54A6.11,6.11,0,0,1,82,181.6a3.83,3.83,0,0,1,1.88.47,3.43,3.43,0,0,1,1.27,1.07,5.17,5.17,0,0,1,.65,1.55,8.3,8.3,0,0,1,.27,1.5c0,.38,0,.92,0,1.63s0,1.41-.08,2.1A20,20,0,0,1,85.8,192a7.2,7.2,0,0,1-.57,1.85,5.62,5.62,0,0,1-1,1.4,4.35,4.35,0,0,1-3.37,1.25,3.86,3.86,0,0,1-1.41-.24,2.42,2.42,0,0,1-.92-.56,2.71,2.71,0,0,1-.72-1.2l0-.25h-.2l.36,2.25v2.82c0,.19-.48.33-1.44.44a25.87,25.87,0,0,1-3,.16,9.69,9.69,0,0,1-2-.13C71.24,199.72,71.07,199.57,71.07,199.35ZM79.15,186c-.15-.57-.38-.85-.67-.85a.69.69,0,0,0-.66.5v6.55c0,.43.23.65.68.65s.87-1.29.87-3.88A13.41,13.41,0,0,0,79.15,186Z"/><path class="cls-8" d="M95.35,196.55a14.39,14.39,0,0,1-3.23-.32,6.68,6.68,0,0,1-2.44-1.15q-2.28-1.65-2.28-6.15,0-4,2.33-5.73a9.28,9.28,0,0,1,5.62-1.6,19.92,19.92,0,0,1,2.52.14,8.36,8.36,0,0,1,2.14.59,4.54,4.54,0,0,1,1.75,1.22,6,6,0,0,1,1.09,2.14,11.08,11.08,0,0,1,.42,3.24c0,2.53-.71,4.44-2.15,5.71A8.32,8.32,0,0,1,95.35,196.55Zm-.87-4.87a2.24,2.24,0,0,0,.36,1.07.68.68,0,0,0,.5.18.7.7,0,0,0,.5-.18,2.4,2.4,0,0,0,.35-1.07,13,13,0,0,0,.16-2.26q0-1.36-.06-2.1a8.66,8.66,0,0,0-.15-1.14,1.88,1.88,0,0,0-.24-.63.66.66,0,0,0-.54-.32.69.69,0,0,0-.51.19,2.38,2.38,0,0,0-.37,1.1,18.58,18.58,0,0,0,0,5.16Z"/><path class="cls-8" d="M119.85,188v7.7c0,.18-.48.33-1.42.44a28,28,0,0,1-2.94.16,8.37,8.37,0,0,1-1.95-.14c-.29-.09-.44-.24-.44-.46v-7.95a7.56,7.56,0,0,0-.09-1.48c-.06-.23-.11-.44-.16-.62a.64.64,0,0,0-.62-.48.62.62,0,0,0-.71.68v9.85c0,.18-.47.33-1.41.44a27.51,27.51,0,0,1-2.92.16,8.48,8.48,0,0,1-2-.14c-.3-.09-.46-.24-.46-.46V183.4q0-.53,1.44-1.05a8.79,8.79,0,0,1,3-.52c1.07,0,1.67.31,1.8.92l.22,1.1h.18a4,4,0,0,1,2.5-2,5.38,5.38,0,0,1,1.6-.23c1.68,0,2.82.51,3.41,1.52A10.14,10.14,0,0,1,119.85,188Z"/><path class="cls-8" d="M128.17,190.68c0,1.08.52,1.62,1.55,1.62a6.35,6.35,0,0,0,2.35-.61c1-.41,1.48-.61,1.53-.61.32,0,.73.47,1.25,1.42a5.09,5.09,0,0,1,.77,2.1c0,.65-.66,1.15-2,1.48a16.19,16.19,0,0,1-3.91.5,14.43,14.43,0,0,1-3.2-.3,8.17,8.17,0,0,1-2.1-.76,5.84,5.84,0,0,1-1.42-1.14,5.66,5.66,0,0,1-.92-1.29,6.59,6.59,0,0,1-.47-1.36,10,10,0,0,1-.25-2.28q0-4.55,2.37-6.27a7.38,7.38,0,0,1,2.63-1.23,14.94,14.94,0,0,1,3.42-.35q6.33,0,6.33,4.4,0,4.68-7.1,4.68Zm0-3.65v1.65a1.44,1.44,0,0,0,1.19-.58,2.15,2.15,0,0,0,.46-1.4c0-1-.25-1.5-.77-1.5S128.12,185.81,128.12,187Z"/><path class="cls-8" d="M152.67,188v7.7c0,.18-.47.33-1.42.44a28,28,0,0,1-2.94.16,8.37,8.37,0,0,1-1.95-.14c-.29-.09-.44-.24-.44-.46v-7.95a7.84,7.84,0,0,0-.08-1.48c-.06-.23-.12-.44-.17-.62a.62.62,0,0,0-.62-.48.61.61,0,0,0-.7.68v9.85c0,.18-.47.33-1.41.44a27.85,27.85,0,0,1-2.93.16,8.54,8.54,0,0,1-2-.14c-.3-.09-.45-.24-.45-.46V183.4q0-.53,1.44-1.05a8.73,8.73,0,0,1,3-.52c1.07,0,1.67.31,1.8.92l.23,1.1h.17a4.05,4.05,0,0,1,2.5-2,5.43,5.43,0,0,1,1.6-.23c1.69,0,2.82.51,3.42,1.52A10.16,10.16,0,0,1,152.67,188Z"/><path class="cls-8" d="M164.25,196.1a3.2,3.2,0,0,1-2.05.43,13.85,13.85,0,0,1-2.65-.21,5.73,5.73,0,0,1-2-.84q-1.83-1.23-1.83-5.1v-3.9h-1.25c-.18,0-.34-.19-.47-.58a5,5,0,0,1-.2-1.57,4.54,4.54,0,0,1,.31-1.76c.21-.51.48-.77.81-.77h.8v-3c0-.52.51-.93,1.52-1.25a9.69,9.69,0,0,1,3-.48c1.52,0,2.27.38,2.27,1.13v3.62h1.85c.44,0,.65.63.65,1.88a6,6,0,0,1-.28,2c-.2.53-.44.79-.74.79h-1.48v4.57a1,1,0,0,0,.58,1,2.31,2.31,0,0,0,1,.28.51.51,0,0,1,.54.43,5.76,5.76,0,0,1,.1,1.27A3.15,3.15,0,0,1,164.25,196.1Z"/><path class="cls-8" d="M171.92,194a2.49,2.49,0,0,1-.67,2,3.88,3.88,0,0,1-4,0,2.49,2.49,0,0,1-.67-2,2.27,2.27,0,0,1,.69-2,4.25,4.25,0,0,1,4,0A2.3,2.3,0,0,1,171.92,194Z"/><path class="cls-8" d="M179.25,194a2.49,2.49,0,0,1-.68,2,3.86,3.86,0,0,1-4,0,2.49,2.49,0,0,1-.68-2,2.27,2.27,0,0,1,.69-2,3.38,3.38,0,0,1,2-.49,3.29,3.29,0,0,1,2,.49A2.3,2.3,0,0,1,179.25,194Z"/><path class="cls-8" d="M186.57,194a2.49,2.49,0,0,1-.67,2,3.88,3.88,0,0,1-4,0,2.49,2.49,0,0,1-.67-2,2.27,2.27,0,0,1,.69-2,4.25,4.25,0,0,1,4,0A2.3,2.3,0,0,1,186.57,194Z"/><path class="cls-9" d="M40.91,166.33a4.32,4.32,0,0,1-1.57-.18,1,1,0,0,1-.53-.6L33.29,150.3c0-.31.59-.68,1.79-1.1a11,11,0,0,1,3.61-.62c1.57,0,2.4.49,2.5,1.47L42,158h.35l.7-7.93c.08-1,1.21-1.47,3.37-1.47a2.86,2.86,0,0,1,1.68.34,1.21,1.21,0,0,1,.47.88l.83,8.18h.35l.65-7.93c.05-.48.62-.85,1.71-1.1a14.53,14.53,0,0,1,3.25-.37,3.71,3.71,0,0,1,2.2.47,1.33,1.33,0,0,1,.59,1l-5.35,15.5c-.19.52-1.42.78-3.7.78a3.48,3.48,0,0,1-1.38-.18.89.89,0,0,1-.47-.6L46,161.2h-.3l-1.33,4.35Q44.14,166.33,40.91,166.33Z"/><path class="cls-9" d="M64.06,166.55a5.41,5.41,0,0,1-3.57-1.07,3.54,3.54,0,0,1-.91-1.33,5,5,0,0,1-.39-2.05,3.77,3.77,0,0,1,.56-2,4.27,4.27,0,0,1,1.36-1.35,8.11,8.11,0,0,1,1.88-.77,14.2,14.2,0,0,1,3.57-.43h.83a1.58,1.58,0,0,0-.7-1.45,2,2,0,0,0-.91-.17,4.5,4.5,0,0,0-1.48.32,9.85,9.85,0,0,0-1.44.67,2.1,2.1,0,0,1-.77.33c-.3,0-.71-.39-1.23-1.18a4.12,4.12,0,0,1-.77-2.17c0-.21.31-.5.92-.85a11.07,11.07,0,0,1,2.62-1,13.11,13.11,0,0,1,3.28-.44,12.43,12.43,0,0,1,2.77.27,8.27,8.27,0,0,1,1.9.63,4.06,4.06,0,0,1,1.25,1,6.9,6.9,0,0,1,.77,1.13,4.27,4.27,0,0,1,.39,1.3,13.14,13.14,0,0,1,.17,2.27v7.53c0,.18-.44.33-1.33.44a24,24,0,0,1-2.65.16,11.23,11.23,0,0,1-1.7-.08c-.26-.05-.42-.1-.47-.17a.87.87,0,0,1-.12-.35l-.2-1.43h-.2C67.07,165.8,65.93,166.55,64.06,166.55Zm3.35-4.15v-2.92a1.24,1.24,0,0,0-1,.55,2.12,2.12,0,0,0-.4,1.25q0,1.65.75,1.65a.83.83,0,0,0,.52-.16A.49.49,0,0,0,67.41,162.4Z"/><path class="cls-9" d="M79.39,146.83a5.63,5.63,0,0,1,2.59.49,1.8,1.8,0,0,1,.93,1.76c0,1.5-1.16,2.25-3.5,2.25s-3.5-.75-3.5-2.25S77.07,146.83,79.39,146.83Zm3.4,6.57v12.33c0,.18-.48.33-1.44.44a28.38,28.38,0,0,1-2.95.16,8.37,8.37,0,0,1-2-.14c-.29-.09-.44-.24-.44-.46V153.85c0-.36.47-.73,1.42-1.08a8.56,8.56,0,0,1,3.08-.54Q82.79,152.23,82.79,153.4Z"/><path class="cls-9" d="M94.49,166.1a3.22,3.22,0,0,1-2,.43,13.85,13.85,0,0,1-2.65-.21,5.73,5.73,0,0,1-2-.84Q86,164.25,86,160.38v-3.9H84.71c-.18,0-.34-.19-.47-.58a4.71,4.71,0,0,1-.2-1.57,4.54,4.54,0,0,1,.31-1.76c.21-.51.48-.77.81-.77H86v-3c0-.52.51-.93,1.52-1.25a9.69,9.69,0,0,1,3-.48c1.51,0,2.27.38,2.27,1.13v3.62h1.85c.44,0,.65.63.65,1.88a6,6,0,0,1-.28,2c-.2.53-.44.79-.74.79H92.71v4.57a1,1,0,0,0,.58,1,2.31,2.31,0,0,0,1,.28.51.51,0,0,1,.54.43,6.46,6.46,0,0,1,.1,1.27A3.15,3.15,0,0,1,94.49,166.1Z"/><path class="cls-9" d="M100.19,146.83a5.56,5.56,0,0,1,2.58.49,1.79,1.79,0,0,1,.94,1.76c0,1.5-1.16,2.25-3.5,2.25s-3.5-.75-3.5-2.25S97.87,146.83,100.19,146.83Zm3.4,6.57v12.33c0,.18-.48.33-1.44.44a28.38,28.38,0,0,1-3,.16,8.37,8.37,0,0,1-2-.14c-.29-.09-.44-.24-.44-.46V153.85c0-.36.47-.73,1.42-1.08a8.56,8.56,0,0,1,3.08-.54Q103.59,152.23,103.59,153.4Z"/><path class="cls-9" d="M120.54,158v7.7c0,.18-.48.33-1.43.44a28,28,0,0,1-2.93.16,8.37,8.37,0,0,1-2-.14c-.3-.09-.44-.24-.44-.46v-7.95a7.56,7.56,0,0,0-.09-1.48c-.06-.23-.11-.44-.16-.62a.64.64,0,0,0-.63-.48.61.61,0,0,0-.7.68v9.85c0,.18-.47.33-1.41.44a27.7,27.7,0,0,1-2.93.16,8.6,8.6,0,0,1-2-.14c-.3-.09-.45-.24-.45-.46V153.4q0-.53,1.44-1.05a8.79,8.79,0,0,1,3-.52c1.06,0,1.66.31,1.8.92l.22,1.1h.18a4,4,0,0,1,2.5-2,5.33,5.33,0,0,1,1.6-.23c1.68,0,2.82.51,3.41,1.52A10.14,10.14,0,0,1,120.54,158Z"/><path class="cls-9" d="M130.64,164.68v-1.45h-.2a2.4,2.4,0,0,1-.35.31,5,5,0,0,1-1.24.51,7,7,0,0,1-2.22.33,5.14,5.14,0,0,1-2.09-.38,3.67,3.67,0,0,1-1.33-.93,4.32,4.32,0,0,1-.75-1.52,15.12,15.12,0,0,1-.42-4,7.1,7.1,0,0,1,1.22-4.45,3.75,3.75,0,0,1,1.42-1.06,4.69,4.69,0,0,1,2-.44,5.52,5.52,0,0,1,1.77.24,3,3,0,0,1,1,.56,2.56,2.56,0,0,1,.8,1.23l0,.22h.2l.22-1c.17-.7,1.49-1,4-1,1.1,0,1.77.17,2,.5a1.43,1.43,0,0,1,.25.56,4,4,0,0,1,0,.79v10.47a5.44,5.44,0,0,1-1.92,4.5,8.83,8.83,0,0,1-5.65,1.55q-4,0-5.38-.77c-.41-.24-.62-.48-.62-.73a7.21,7.21,0,0,1,.49-2c.32-1,.62-1.43.91-1.43a4.76,4.76,0,0,1,.7.18,12.8,12.8,0,0,0,3.09.5,3,3,0,0,0,1.6-.3A1.11,1.11,0,0,0,130.64,164.68Zm-1-3.15a.59.59,0,0,0,.45-.2.68.68,0,0,0,.17-.45v-5.15c-.06-.35-.25-.53-.55-.53-.63,0-1,1.05-1,3.13a9,9,0,0,0,.24,2.32C129.16,161.24,129.37,161.53,129.64,161.53Z"/><path class="cls-9" d="M152.46,158.08v7.65c0,.18-.46.33-1.37.44a31.63,31.63,0,0,1-3.38.16c-1.33,0-2-.2-2-.6v-7.65h-1.27c-.45,0-.68-.76-.68-2.28a4.64,4.64,0,0,1,.31-1.68c.21-.53.48-.79.82-.79h.82a8,8,0,0,1,.49-2.93,4.67,4.67,0,0,1,2.84-3,8.52,8.52,0,0,1,3.3-.6q4.65,0,4.65,1.52a9.2,9.2,0,0,1-.33,2.7c-.21.7-.51,1-.87,1a3.87,3.87,0,0,1-.84-.16,4.49,4.49,0,0,0-1.16-.16c-1,0-1.45.33-1.45,1a1.48,1.48,0,0,0,.12.55h3.33c.45,0,.67.73.67,2.2a4.89,4.89,0,0,1-.29,1.76c-.19.53-.44.79-.76.79Z"/><path class="cls-9" d="M166.06,166.55a14.29,14.29,0,0,1-3.22-.32,6.65,6.65,0,0,1-2.45-1.15q-2.28-1.65-2.28-6.15,0-4,2.33-5.73a9.28,9.28,0,0,1,5.62-1.6,20.09,20.09,0,0,1,2.53.14,8.3,8.3,0,0,1,2.13.59,4.54,4.54,0,0,1,1.75,1.22,5.87,5.87,0,0,1,1.09,2.14,10.73,10.73,0,0,1,.43,3.24,7.25,7.25,0,0,1-2.15,5.71A8.36,8.36,0,0,1,166.06,166.55Zm-.87-4.87a2.24,2.24,0,0,0,.36,1.07.68.68,0,0,0,.5.18.7.7,0,0,0,.5-.18,2.4,2.4,0,0,0,.35-1.07,13,13,0,0,0,.16-2.26q0-1.36-.06-2.1a8.66,8.66,0,0,0-.15-1.14,1.88,1.88,0,0,0-.24-.63.66.66,0,0,0-.54-.32.7.7,0,0,0-.51.19,2.38,2.38,0,0,0-.37,1.1,18.58,18.58,0,0,0,0,5.16Z"/><path class="cls-9" d="M182.24,158.43v7.3c0,.18-.47.33-1.42.44a27.51,27.51,0,0,1-2.92.16,8.54,8.54,0,0,1-2-.14c-.3-.09-.45-.24-.45-.46V153.4q0-.47,1.38-1a8.12,8.12,0,0,1,3-.55c1.09,0,1.7.3,1.84.9l.25,1.15h.17a3.15,3.15,0,0,1,1.68-1.61,5.75,5.75,0,0,1,2.65-.67,3.1,3.1,0,0,1,1.86.43,1.31,1.31,0,0,1,.54,1.09c0,.44,0,1-.1,1.68a10.73,10.73,0,0,1-.49,2.23c-.26.8-.6,1.2-1,1.2a10.36,10.36,0,0,1-1.58-.38,8.3,8.3,0,0,0-2.19-.37c-.57,0-.93.08-1.07.25A1.06,1.06,0,0,0,182.24,158.43Z"/><path class="cls-9" d="M44.18,196.55a14.73,14.73,0,0,1-3.57-.38,7.22,7.22,0,0,1-2.73-1.39c-1.69-1.32-2.53-3.84-2.53-7.58a11.18,11.18,0,0,1,.69-4.1A6.73,6.73,0,0,1,38,180.33a9.43,9.43,0,0,1,6.23-2,15,15,0,0,1,3.43.35A8,8,0,0,1,50.38,180Q53,181.86,53,187.2q0,4.8-2.37,7.08A8.94,8.94,0,0,1,44.18,196.55Zm-.83-4.28a1.13,1.13,0,0,0,1.65,0,3.66,3.66,0,0,0,.5-1.55,21.69,21.69,0,0,0,.2-3.32,20.78,20.78,0,0,0-.2-3.27,3.37,3.37,0,0,0-.5-1.5,1.15,1.15,0,0,0-1.65,0,3.37,3.37,0,0,0-.5,1.5,20.78,20.78,0,0,0-.2,3.27,21.69,21.69,0,0,0,.2,3.32A3.66,3.66,0,0,0,43.35,192.27Z"/><path class="cls-9" d="M54.5,199.35v-15.9c0-.35.47-.7,1.4-1.07a8.12,8.12,0,0,1,3-.55,3.29,3.29,0,0,1,1.17.17,1.22,1.22,0,0,1,.53.35,10.48,10.48,0,0,1,.37,1.5h.2a2,2,0,0,1,.45-.7,5.22,5.22,0,0,1,.81-.77,4.17,4.17,0,0,1,1.19-.54,6.15,6.15,0,0,1,1.81-.24,3.89,3.89,0,0,1,1.89.47,3.31,3.31,0,0,1,1.26,1.07,4.92,4.92,0,0,1,.65,1.55,9.52,9.52,0,0,1,.28,1.5c0,.38,0,.92,0,1.63s0,1.41-.08,2.1a20,20,0,0,1-.27,2.11,7.61,7.61,0,0,1-.58,1.85,5.86,5.86,0,0,1-1,1.4,4.37,4.37,0,0,1-3.37,1.25,3.88,3.88,0,0,1-1.42-.24,2.37,2.37,0,0,1-.91-.56,2.53,2.53,0,0,1-.72-1.2l0-.25h-.2l.35,2.25v2.82c0,.19-.48.33-1.44.44a25.87,25.87,0,0,1-3,.16,9.51,9.51,0,0,1-2-.13C54.67,199.72,54.5,199.57,54.5,199.35ZM62.58,186c-.15-.57-.38-.85-.68-.85a.68.68,0,0,0-.65.5v6.55c0,.43.23.65.68.65s.87-1.29.87-3.88A13.41,13.41,0,0,0,62.58,186Z"/><path class="cls-9" d="M71.07,199.35v-15.9c0-.35.47-.7,1.41-1.07a8.11,8.11,0,0,1,3-.55,3.29,3.29,0,0,1,1.17.17,1.16,1.16,0,0,1,.53.35,9.14,9.14,0,0,1,.37,1.5h.2a2.25,2.25,0,0,1,.46-.7,4.46,4.46,0,0,1,.81-.77,4,4,0,0,1,1.19-.54A6.11,6.11,0,0,1,82,181.6a3.83,3.83,0,0,1,1.88.47,3.43,3.43,0,0,1,1.27,1.07,5.17,5.17,0,0,1,.65,1.55,8.3,8.3,0,0,1,.27,1.5c0,.38,0,.92,0,1.63s0,1.41-.08,2.1A20,20,0,0,1,85.8,192a7.2,7.2,0,0,1-.57,1.85,5.62,5.62,0,0,1-1,1.4,4.35,4.35,0,0,1-3.37,1.25,3.86,3.86,0,0,1-1.41-.24,2.42,2.42,0,0,1-.92-.56,2.71,2.71,0,0,1-.72-1.2l0-.25h-.2l.36,2.25v2.82c0,.19-.48.33-1.44.44a25.87,25.87,0,0,1-3,.16,9.69,9.69,0,0,1-2-.13C71.24,199.72,71.07,199.57,71.07,199.35ZM79.15,186c-.15-.57-.38-.85-.67-.85a.69.69,0,0,0-.66.5v6.55c0,.43.23.65.68.65s.87-1.29.87-3.88A13.41,13.41,0,0,0,79.15,186Z"/><path class="cls-9" d="M95.35,196.55a14.39,14.39,0,0,1-3.23-.32,6.68,6.68,0,0,1-2.44-1.15q-2.28-1.65-2.28-6.15,0-4,2.33-5.73a9.28,9.28,0,0,1,5.62-1.6,19.92,19.92,0,0,1,2.52.14,8.36,8.36,0,0,1,2.14.59,4.54,4.54,0,0,1,1.75,1.22,6,6,0,0,1,1.09,2.14,11.08,11.08,0,0,1,.42,3.24c0,2.53-.71,4.44-2.15,5.71A8.32,8.32,0,0,1,95.35,196.55Zm-.87-4.87a2.24,2.24,0,0,0,.36,1.07.68.68,0,0,0,.5.18.7.7,0,0,0,.5-.18,2.4,2.4,0,0,0,.35-1.07,13,13,0,0,0,.16-2.26q0-1.36-.06-2.1a8.66,8.66,0,0,0-.15-1.14,1.88,1.88,0,0,0-.24-.63.66.66,0,0,0-.54-.32.69.69,0,0,0-.51.19,2.38,2.38,0,0,0-.37,1.1,18.58,18.58,0,0,0,0,5.16Z"/><path class="cls-9" d="M119.85,188v7.7c0,.18-.48.33-1.42.44a28,28,0,0,1-2.94.16,8.37,8.37,0,0,1-1.95-.14c-.29-.09-.44-.24-.44-.46v-7.95a7.56,7.56,0,0,0-.09-1.48c-.06-.23-.11-.44-.16-.62a.64.64,0,0,0-.62-.48.62.62,0,0,0-.71.68v9.85c0,.18-.47.33-1.41.44a27.51,27.51,0,0,1-2.92.16,8.48,8.48,0,0,1-2-.14c-.3-.09-.46-.24-.46-.46V183.4q0-.53,1.44-1.05a8.79,8.79,0,0,1,3-.52c1.07,0,1.67.31,1.8.92l.22,1.1h.18a4,4,0,0,1,2.5-2,5.38,5.38,0,0,1,1.6-.23c1.68,0,2.82.51,3.41,1.52A10.14,10.14,0,0,1,119.85,188Z"/><path class="cls-9" d="M128.17,190.68c0,1.08.52,1.62,1.55,1.62a6.35,6.35,0,0,0,2.35-.61c1-.41,1.48-.61,1.53-.61.32,0,.73.47,1.25,1.42a5.09,5.09,0,0,1,.77,2.1c0,.65-.66,1.15-2,1.48a16.19,16.19,0,0,1-3.91.5,14.43,14.43,0,0,1-3.2-.3,8.17,8.17,0,0,1-2.1-.76,5.84,5.84,0,0,1-1.42-1.14,5.66,5.66,0,0,1-.92-1.29,6.59,6.59,0,0,1-.47-1.36,10,10,0,0,1-.25-2.28q0-4.55,2.37-6.27a7.38,7.38,0,0,1,2.63-1.23,14.94,14.94,0,0,1,3.42-.35q6.33,0,6.33,4.4,0,4.68-7.1,4.68Zm0-3.65v1.65a1.44,1.44,0,0,0,1.19-.58,2.15,2.15,0,0,0,.46-1.4c0-1-.25-1.5-.77-1.5S128.12,185.81,128.12,187Z"/><path class="cls-9" d="M152.67,188v7.7c0,.18-.47.33-1.42.44a28,28,0,0,1-2.94.16,8.37,8.37,0,0,1-1.95-.14c-.29-.09-.44-.24-.44-.46v-7.95a7.84,7.84,0,0,0-.08-1.48c-.06-.23-.12-.44-.17-.62a.62.62,0,0,0-.62-.48.61.61,0,0,0-.7.68v9.85c0,.18-.47.33-1.41.44a27.85,27.85,0,0,1-2.93.16,8.54,8.54,0,0,1-2-.14c-.3-.09-.45-.24-.45-.46V183.4q0-.53,1.44-1.05a8.73,8.73,0,0,1,3-.52c1.07,0,1.67.31,1.8.92l.23,1.1h.17a4.05,4.05,0,0,1,2.5-2,5.43,5.43,0,0,1,1.6-.23c1.69,0,2.82.51,3.42,1.52A10.16,10.16,0,0,1,152.67,188Z"/><path class="cls-9" d="M164.25,196.1a3.2,3.2,0,0,1-2.05.43,13.85,13.85,0,0,1-2.65-.21,5.73,5.73,0,0,1-2-.84q-1.83-1.23-1.83-5.1v-3.9h-1.25c-.18,0-.34-.19-.47-.58a5,5,0,0,1-.2-1.57,4.54,4.54,0,0,1,.31-1.76c.21-.51.48-.77.81-.77h.8v-3c0-.52.51-.93,1.52-1.25a9.69,9.69,0,0,1,3-.48c1.52,0,2.27.38,2.27,1.13v3.62h1.85c.44,0,.65.63.65,1.88a6,6,0,0,1-.28,2c-.2.53-.44.79-.74.79h-1.48v4.57a1,1,0,0,0,.58,1,2.31,2.31,0,0,0,1,.28.51.51,0,0,1,.54.43,5.76,5.76,0,0,1,.1,1.27A3.15,3.15,0,0,1,164.25,196.1Z"/><path class="cls-9" d="M171.92,194a2.49,2.49,0,0,1-.67,2,3.88,3.88,0,0,1-4,0,2.49,2.49,0,0,1-.67-2,2.27,2.27,0,0,1,.69-2,4.25,4.25,0,0,1,4,0A2.3,2.3,0,0,1,171.92,194Z"/><path class="cls-9" d="M179.25,194a2.49,2.49,0,0,1-.68,2,3.86,3.86,0,0,1-4,0,2.49,2.49,0,0,1-.68-2,2.27,2.27,0,0,1,.69-2,3.38,3.38,0,0,1,2-.49,3.29,3.29,0,0,1,2,.49A2.3,2.3,0,0,1,179.25,194Z"/><path class="cls-9" d="M186.57,194a2.49,2.49,0,0,1-.67,2,3.88,3.88,0,0,1-4,0,2.49,2.49,0,0,1-.67-2,2.27,2.27,0,0,1,.69-2,4.25,4.25,0,0,1,4,0A2.3,2.3,0,0,1,186.57,194Z"/></svg>