<svg xmlns="http://www.w3.org/2000/svg" viewBox="0 0 112.79 115.13"><defs><style>.cls-1{fill:#c9dce5;}.cls-2{fill:#d19af4;}.cls-3{fill:#6b757a;}.cls-4{fill:#848e93;}.cls-5{fill:#f4f4f1;}.cls-6{fill:#f5f5f5;}.cls-7{fill:#b4b3ae;}.cls-8{fill:#f4f4f2;}.cls-9{fill:#b3b2af;}.cls-10{fill:#b4b3af;}.cls-11{fill:#eaeaea;}</style></defs><g id="Layer_2" data-name="Layer 2"><g id="Layer_1-2" data-name="Layer 1"><path class="cls-1" d="M112.79,52.54V62.66c-.47,2.48-1,5-1.42,7.42-1.44,1-1.19,2.73-1.72,4.12-.18.5-.37,1-.55,1.51C96.94,109.22,56.15,123,26.15,103.8,14,96,6.15,85.07,2,71.37c-.47-.06-.77-.14-.83-.8C.83,67.42.65,64.23.3,61.11a50.75,50.75,0,0,1,1-16.6A54.19,54.19,0,0,1,20.8,12.67c14-11.2,29.93-15,47.43-11.34a53.9,53.9,0,0,1,29.53,17A56.5,56.5,0,0,1,110.64,41.6C111.64,45.2,111.82,48.94,112.79,52.54Zm-7.31,3.75C105.48,29.23,83.48,7,56.62,7S7.09,28,7.06,56.31a49.21,49.21,0,1,0,98.42,0Z"/><rect class="cls-2" x="35.14" y="28.19" width="47.57" height="47.57"/><path class="cls-3" d="M110.4,74.19A56.25,56.25,0,0,1,64,114.66c-.5.07-1.11-.15-1.43.47H50.18c-2.14-.45-4.3-.81-6.41-1.35C22,108.18,8.05,94.46,1.62,73c-.23-.79.2-1.09.35-1.61C6.15,85.07,14,96,26.15,103.8c30,19.24,70.79,5.42,82.95-28.09.18-.51.37-1,.55-1.51Z"/><path class="cls-2" d="M105.48,56.29a49.21,49.21,0,1,1-98.42,0C7.09,28,29.83,7,56.62,7S105.48,29.23,105.48,56.29ZM54.88,47q1.32-3.66,2.65-7.34c1.86-5.1,3.74-10.2,5.55-15.33.35-1,1.25-2.49-1.13-2.06,0-.66.29-1.57-.64-1.7s-1.07.76-1.35,1.36q-4.07,8.63-8.07,17.26-4.68,10.1-9.31,20.21A5.25,5.25,0,0,0,42,62.23c-.48,3.74.27,7.38,1,11l.44,3.23a9.32,9.32,0,0,1-1.48,4.75c-2.14,3.62-4.13,7.34-6.31,10.94-.85,1.41-.5,2,.91,2.47a.76.76,0,0,0,.48.93c3,1,5.95,2,8.94,2.93,1.13.36,1.45-.42,1.68-1.31C48.17,95,49,92.94,49.3,90.76A18.25,18.25,0,0,1,60,76.17a15.66,15.66,0,0,0,8.32-9.94C70.74,58,73.2,49.81,75.63,41.59c1.17-4,2.4-7.9,3.45-11.89.24-.89.87-2.48-1.21-2.44-.14-.55.07-1.4-.84-1.36s-1.19.91-1.46,1.59c-1.93,5.06-3.8,10.15-5.74,15.2-.28.73-.21,1.73-1.22,2.05-.14-1.28.51-2.36.89-3.5,1.44-4.41,3-8.78,4.35-13.2.3-1,1.15-2.51-1.06-2.63-.12-.49.11-1.2-.59-1.35-.87-.19-1.21.56-1.47,1.17-1.21,2.89-2.31,5.83-3.55,8.71-2.19,5.12-3.8,10.49-6.42,15.43-.63-.48-.15-.92,0-1.4q3.7-11.05,7.36-22.14c.36-1.07.9-2.43-1.23-2.18-.12-.55.16-1.37-.72-1.44-.61-.05-.86.56-1.08,1s-.47,1.12-.7,1.69L55.61,47Z"/><path class="cls-4" d="M110.4,74.19h-.75c.53-1.39.28-3.11,1.72-4.12C111,71.43,111.07,72.9,110.4,74.19Z"/><path class="cls-5" d="M60.76,49.37c2.62-4.94,4.23-10.31,6.42-15.43,1.24-2.88,2.34-5.82,3.55-8.71.26-.61.6-1.36,1.47-1.17.7.15.47.86.59,1.35Q67.17,42.3,61.53,59.18a21.37,21.37,0,0,0-.63,2.21.87.87,0,0,0,.58,1.11.84.84,0,0,0,1-.71c.71-2.72,2.4-5.06,2.92-7.85a.9.9,0,0,0,.43-.95v0a1.68,1.68,0,0,0,.48-1.63v0a5.31,5.31,0,0,0,1.39-3.92h0a1,1,0,0,0,.48-1.41v0a1,1,0,0,0,.47-1.41v0c1-.32.94-1.32,1.22-2.05,1.94-5,3.81-10.14,5.74-15.2.27-.68.54-1.55,1.46-1.59s.7.81.84,1.35c-.07.38-.11.77-.21,1.13C74.81,38,72,47.58,69.07,57.14c-1.14,3.71-1.68,7.63-3.71,11-.43-.14-.87-.26-1.29-.42L42.58,59.4q4.65-10.11,9.31-20.21,4-8.64,8.07-17.26c.28-.6.56-1.48,1.35-1.36s.64,1,.64,1.69L49.68,55.86c-.32.87-.79,1.93.27,2.44s1.27-.67,1.66-1.35A1.55,1.55,0,0,0,52,55.52l0,0A43.6,43.6,0,0,0,55.61,47l8.8-22.06c.23-.57.44-1.14.7-1.69s.47-1.09,1.08-1c.88.07.6.89.72,1.43-.13.44-.25.89-.39,1.32q-5.44,16.55-10.87,33.1c-.23.72-.94,1.78.2,2.16.85.28,1.14-.86,1.4-1.52C58.45,55.6,59.6,52.48,60.76,49.37Z"/><path class="cls-6" d="M43,73.25c-.69-3.64-1.44-7.28-1-11,3.55,1.41,7.15,2.73,10.65,4.27S59.87,69,63.14,71c-2.68,3.09-6.36,4.76-9.71,6.9A2.13,2.13,0,0,0,52,76.85C49,75.67,46,74.45,43,73.25Z"/><path class="cls-7" d="M53.43,77.92c3.35-2.14,7-3.81,9.71-6.9a6.22,6.22,0,0,0,2.22-2.84c2-3.41,2.57-7.33,3.71-11,3-9.56,5.74-19.17,8.59-28.76.1-.36.14-.75.21-1.13,2.08,0,1.45,1.56,1.21,2.45-1,4-2.28,7.94-3.45,11.89C73.2,49.81,70.74,58,68.36,66.23A15.66,15.66,0,0,1,60,76.17,18.25,18.25,0,0,0,49.3,90.76C49,92.94,48.17,95,47.61,97.19c-.23.89-.55,1.67-1.68,1.31-3-1-6-1.94-8.94-2.93a.76.76,0,0,1-.48-.93l.76.1a35.19,35.19,0,0,0,5.8,1.64c2.6,1.23,2.61,1.23,3.33-1.46.54-2.06,1-4.15,1.65-6.17,1.05-3.22,1.26-6.77,3.62-9.5A4.21,4.21,0,0,0,53.43,77.92Z"/><path class="cls-8" d="M51.67,79.25c-2.36,2.73-2.57,6.28-3.62,9.5-.66,2-1.11,4.11-1.65,6.17-.72,2.69-.73,2.69-3.33,1.46.91-.35,1.13-1.18,1.36-2,.86-3,1.61-6,2.58-9,.54-1.64-.35-2.08-1.52-2.42s-2.36-1.64-3.29.59c-1.05,2.52-2.52,4.87-3.81,7.29a6.64,6.64,0,0,0-1.12,3.89l-.76-.1c-1.41-.42-1.76-1.06-.91-2.47,2.18-3.6,4.17-7.32,6.31-10.94a9.32,9.32,0,0,0,1.48-4.75,5.06,5.06,0,0,1,1.94.53C47.46,77.71,49.38,79,51.67,79.25Z"/><path class="cls-9" d="M66.3,51.41v0A1.73,1.73,0,0,0,65.83,53v0c-.46.17-.46.55-.43.95-.52,2.79-2.21,5.13-2.92,7.85a.84.84,0,0,1-1,.71.87.87,0,0,1-.58-1.11,21.37,21.37,0,0,1,.63-2.21q5.63-16.89,11.26-33.77c2.21.12,1.36,1.66,1.06,2.63-1.38,4.42-2.91,8.79-4.35,13.2-.38,1.14-1,2.22-.89,3.5v0c-.58.33-.55.86-.47,1.41v0c-.58.33-.55.86-.48,1.41h0A5.61,5.61,0,0,0,66.3,51.41Z"/><path class="cls-10" d="M60.76,49.37c-1.16,3.11-2.31,6.23-3.51,9.33-.26.66-.55,1.8-1.4,1.52-1.14-.38-.43-1.44-.2-2.16Q61.07,41.5,66.52,25c.14-.43.26-.88.39-1.32,2.13-.24,1.59,1.12,1.23,2.19Q64.49,36.92,60.78,48C60.61,48.45,60.13,48.89,60.76,49.37Z"/><path class="cls-11" d="M65.36,68.18A6.22,6.22,0,0,1,63.14,71c-3.27-2-7-3-10.5-4.52S45.54,63.64,42,62.23a5.25,5.25,0,0,1,.59-2.83l21.49,8.36C64.49,67.92,64.93,68,65.36,68.18Z"/><path class="cls-10" d="M52,55.55l0,0A1.36,1.36,0,0,0,51.61,57c-.39.68-.55,1.9-1.66,1.35s-.59-1.57-.27-2.44L62,22.26c2.38-.42,1.48,1.1,1.13,2.07-1.81,5.13-3.69,10.23-5.55,15.33Q56.2,43.34,54.88,47C53.83,49.82,52.38,52.5,52,55.55Z"/><path class="cls-11" d="M51.67,79.25C49.38,79,47.46,77.71,45.33,77a5.06,5.06,0,0,0-1.94-.53c-.14-1.08-.29-2.16-.44-3.23,3,1.2,6,2.42,9.09,3.6a2.13,2.13,0,0,1,1.39,1.07A4.21,4.21,0,0,1,51.67,79.25Z"/><path class="cls-11" d="M37.27,94.74a6.64,6.64,0,0,1,1.12-3.89c1.29-2.42,2.76-4.77,3.81-7.29.93-2.23,2.13-.92,3.29-.59s2.06.78,1.52,2.42c-1,3-1.72,6-2.58,9-.23.81-.45,1.64-1.36,2A35.19,35.19,0,0,1,37.27,94.74Z"/></g></g></svg>