<svg xmlns="http://www.w3.org/2000/svg" viewBox="0 0 112.79 115.13"><defs><style>.cls-1{fill:#c9dce5;}.cls-2{fill:#6b757a;}.cls-3{fill:#9aaef7;}.cls-4{fill:#798282;}.cls-5{fill:#9aa4a7;}.cls-6{fill:#cd804a;}.cls-7{fill:#767e82;}.cls-8{fill:#cd804b;}.cls-9{fill:#cc804b;}.cls-10{fill:#ba7443;}.cls-11{fill:#b16f42;}.cls-12{fill:#97a5ad;}</style></defs><g id="Layer_2" data-name="Layer 2"><g id="Layer_1-2" data-name="Layer 1"><path class="cls-1" d="M112.79,52.54V62.66l-1.44,7.44c-1.39,1-1.11,2.72-1.67,4.09L109,76.12c-12.26,33.11-52.82,46.77-82.61,27.81C14.12,96.15,6.17,85.16,2,71.37c-.48-.06-.78-.14-.84-.8C.83,67.42.65,64.23.3,61.11a50.75,50.75,0,0,1,1-16.6A54.19,54.19,0,0,1,20.8,12.67c14-11.2,29.93-15,47.43-11.34a53.9,53.9,0,0,1,29.53,17A56.5,56.5,0,0,1,110.64,41.6C111.64,45.2,111.82,48.94,112.79,52.54Zm-7.31,3.88C105.49,29.2,83.53,7,56.53,7,29.72,7.07,7,28.12,7.06,56.4a49.21,49.21,0,0,0,98.42,0Z"/><path class="cls-2" d="M110.38,74.18C104.91,95.18,86,111.67,64,114.66c-.5.07-1.11-.15-1.43.47H50.18c-2.14-.45-4.3-.81-6.41-1.35C22,108.18,8.05,94.46,1.62,73c-.23-.79.2-1.09.36-1.61,4.19,13.79,12.14,24.78,24.37,32.56,29.79,19,70.35,5.3,82.61-27.81l.72-1.93Z"/><path class="cls-3" d="M105.48,56.42a49.21,49.21,0,0,1-98.42,0C7,28.12,29.72,7.07,56.53,7,83.53,7,105.49,29.2,105.48,56.42ZM27.13,80.62c-.19.49.06.76.48.94h0a3.51,3.51,0,0,0,1.14,1.68C39,94.1,51.51,98.2,66.05,95A38.17,38.17,0,0,0,95.13,50.5c-.64-3.35-1.31-6.76-3.49-9.58A35.41,35.41,0,0,0,79.87,26.35a37.71,37.71,0,0,0-54.72,9.08c-8.89,13.67-8.43,27.83-.7,41.95.28.62.51,1.28,1.31,1.43v0a.71.71,0,0,0,.48.94h0c.1.52.24,1,.93.94Z"/><path class="cls-4" d="M110.38,74.18h-.7c.56-1.37.28-3.07,1.67-4.09C111,71.46,110.71,72.82,110.38,74.18Z"/><path class="cls-5" d="M24.45,77.38c-7.73-14.12-8.19-28.28.7-41.95a37.71,37.71,0,0,1,54.72-9.08A35.41,35.41,0,0,1,91.64,40.92,10.31,10.31,0,0,0,92,42.69,37.91,37.91,0,0,1,29.8,83c-.63-.62-1.12-1.52-2.21-1.49h0a.89.89,0,0,0-.48-.94v0a.85.85,0,0,0-.93-.94h0a.91.91,0,0,0-.48-.94v0A1.33,1.33,0,0,0,24.45,77.38ZM88,74.65a33,33,0,0,0,5-17.91c-.39-1-1.24-.49-1.86-.49-7.65,0-15.31-.11-23,0-2.24,0-3.08-.69-2.83-2.83l1-.07.47,0,8.74.81.46.06,10.59.92.46,0c1.36.15,2.73.28,4.09.48s2-.2,1.89-1.69c-.67-6.81-2.54-13.16-6.84-18.63l-.52-.8a29.82,29.82,0,0,0-10.54-9.36l-1-.67a33,33,0,0,0-16.54-4.37l-.42-.25c-.92.69-.52,1.69-.52,2.54,0,7.48-.11,15,0,22.42,0,2.25-.82,3.05-2.86,3,.1-1.52.17-3.05.31-4.57q1-11,2-21.88c.1-1-.15-1.67-1.36-1.49-3.09.45-6.23.69-9.19,1.81l-.91.39a24.62,24.62,0,0,0-8.77,4.53l-.9.58A30.18,30.18,0,0,0,26.71,36l-.51.83a33.69,33.69,0,0,0-5.91,19c0,.31.05.61.07.92A33.29,33.29,0,0,0,26.23,76a31.15,31.15,0,0,0,9.2,9.68l.47.38a27.93,27.93,0,0,0,9.21,4.63,1.69,1.69,0,0,0,.44.12,31,31,0,0,0,10.62,1.88c.46.43.82.12,1.18-.15a23.58,23.58,0,0,0,9.41-1.39l.46-.07a32.25,32.25,0,0,0,9.67-4.61l.47-.37a31.4,31.4,0,0,0,10.16-10.9Z"/><path class="cls-4" d="M27.59,81.55c1.09,0,1.58.87,2.21,1.49A37.93,37.93,0,0,0,92,42.69a10.31,10.31,0,0,1-.38-1.77c2.18,2.82,2.85,6.23,3.49,9.58A38.17,38.17,0,0,1,66.05,95C51.51,98.2,39,94.1,28.73,83.23A3.51,3.51,0,0,1,27.59,81.55Z"/><path class="cls-4" d="M24.45,77.38a1.33,1.33,0,0,1,1.31,1.43C25,78.66,24.73,78,24.45,77.38Z"/><path class="cls-4" d="M26.21,79.71a.85.85,0,0,1,.93.94C26.45,80.71,26.31,80.23,26.21,79.71Z"/><path class="cls-4" d="M25.75,78.78a.91.91,0,0,1,.48.94A.71.71,0,0,1,25.75,78.78Z"/><path class="cls-4" d="M27.13,80.62a.89.89,0,0,1,.48.94C27.19,81.38,26.94,81.11,27.13,80.62Z"/><path class="cls-6" d="M57.59,20.19a33,33,0,0,1,16.54,4.37A19.05,19.05,0,0,1,74.56,27q.5,13.59.94,27.18l-8.74-.81c-.26-2.89.53-5.83-.46-8.69V24.14h-.46V44.71c.06,2.9-.27,5.81.45,8.67l-1,.07c-1-1.37-1.64-3.12-3.17-3.85-2.69-1.27-2.77-3.52-2.79-5.92,0-.69-.14-1.37-.19-2.06q-.83-10.36-1.66-20.75Z"/><path class="cls-7" d="M57.51,20.87q.83,10.38,1.66,20.75c0,.69.18,1.37.19,2.06,0,2.4.1,4.65,2.79,5.92,1.53.73,2.21,2.48,3.17,3.85-.25,2.14.59,2.87,2.83,2.83,7.65-.14,15.31-.07,23,0,.62,0,1.47-.49,1.86.49-1.91.8-4-.06-6,.84h-.47a57.5,57.5,0,0,0-10.14.91,1.7,1.7,0,0,0-.45,0l-9.17.63-.51.26c-.94-.15-1.37.45-1.71,1.19A9.23,9.23,0,0,1,59.79,65C58.63,65.42,57,65,57,67.21c.09,7.71,0,15.42,0,23.13a6.2,6.2,0,0,0,.33,1.3l-.06.93c-.36.27-.72.58-1.18.15Q55,79.47,53.89,66.24a1.58,1.58,0,0,0-.84-1.5c-2.37-1.16-3.83-3.21-5.13-5.4.25-2-.48-2.77-2.67-2.74-8.18.14-16.37.07-24.56.07a1.91,1.91,0,0,1-.33.06c0-.31-.05-.61-.07-.92l5.94-.53.49,0a65.49,65.49,0,0,0,8.73-.85l.47,0a52.81,52.81,0,0,0,9.22-.86l.44,0c1.07-.12,2.33.44,3-.94a10.58,10.58,0,0,1,5.2-4.63c2,0,2.9-.77,2.86-3-.14-7.47-.07-14.94,0-22.42,0-.85-.4-1.85.52-2.54Zm5.11,35.67a5.6,5.6,0,0,0-5.87-5.87,5.71,5.71,0,0,0-6.1,5.93,6,6,0,0,0,5.91,6A5.92,5.92,0,0,0,62.62,56.54Z"/><path class="cls-6" d="M66.79,59.14,76,58.51c-.14,9.34.77,18.65.93,28a32.25,32.25,0,0,1-9.67,4.61c0-3.65,0-7.3,0-11-.24-2.3.53-4.66-.44-6.91Q66.77,66.2,66.79,59.14Z"/><path class="cls-6" d="M47.92,59.34c1.3,2.19,2.76,4.24,5.13,5.4a1.58,1.58,0,0,1,.84,1.5Q55,79.48,56.17,92.72a31,31,0,0,1-10.62-1.88l0-31.7Z"/><path class="cls-8" d="M53.82,47.92a10.58,10.58,0,0,0-5.2,4.63c-.71,1.38-2,.82-3,.94q0-9,0-18,0-6.87,0-13.73c3-1.12,6.1-1.36,9.19-1.81,1.21-.18,1.46.47,1.36,1.49q-1,10.94-2,21.88C54,44.87,53.92,46.4,53.82,47.92Z"/><path class="cls-6" d="M45.11,90.72a27.93,27.93,0,0,1-9.21-4.63q0-13.82,0-27.62l8.75.63a4.32,4.32,0,0,1,.45,2.67Z"/><path class="cls-6" d="M45.14,53.51a52.81,52.81,0,0,1-9.22.86l0-27.66a24.62,24.62,0,0,1,8.77-4.53c0,3-.06,5.93,0,8.89,0,1.48-.46,3,.44,4.44Q45.14,44.51,45.14,53.51Z"/><path class="cls-6" d="M86.55,55.19,76,54.27l-.87-29a29.82,29.82,0,0,1,10.54,9.36C85.61,41.47,86,48.34,86.55,55.19Z"/><path class="cls-6" d="M76.41,58.49a57.5,57.5,0,0,1,10.14-.91q.48,8.82,1,17.65a31.4,31.4,0,0,1-10.16,10.9Q76.88,72.3,76.41,58.49Z"/><path class="cls-8" d="M57.35,92.57l.06-.93Q58.61,78.31,59.79,65a9.23,9.23,0,0,0,4.78-4.39c.34-.74.77-1.34,1.71-1.19q0,6.92,0,13.85c.24,2.29-.55,4.66.45,6.9,0,3.68,0,7.35,0,11A23.58,23.58,0,0,1,57.35,92.57Z"/><path class="cls-6" d="M35.43,85.71A31.15,31.15,0,0,1,26.23,76c0-.31,0-.61,0-.92.69-.69.46-1.58.46-2.39,0-5,0-10.07,0-15.1a52.45,52.45,0,0,1,8.76.79Q35.46,72.06,35.43,85.71Z"/><path class="cls-6" d="M35.45,54.4a65.49,65.49,0,0,1-8.73.85c0-2.28,0-4.57,0-6.85.94-2.09.4-4.3.4-6.44s.56-4.06-.4-6A30.18,30.18,0,0,1,35,27.29C35,36.33,34.85,45.37,35.45,54.4Z"/><path class="cls-8" d="M86.15,35.39C90.45,40.86,92.32,47.21,93,54c.15,1.49-.55,1.88-1.89,1.69s-2.73-.33-4.09-.48C86.88,48.61,86,42,86.15,35.39Z"/><path class="cls-9" d="M26.23,55.28l-5.94.53a33.69,33.69,0,0,1,5.91-19c0,3.87,0,7.73.05,11.6Z"/><path class="cls-9" d="M26.24,75.11c0,.31,0,.61,0,.92a33.29,33.29,0,0,1-5.87-19.3l.33,0c1.75.91,3.78.13,5.55.9Z"/><path class="cls-9" d="M87,57.58c1.9-.9,4,0,6-.84a33,33,0,0,1-5,17.91Z"/><path class="cls-10" d="M35.45,54.4c-.6-9-.44-18.07-.46-27.11l.9-.58,0,27.66Z"/><path class="cls-11" d="M75.09,25.23l.87,29-.46-.06Q75,40.62,74.56,27a19.05,19.05,0,0,0-.43-2.47Z"/><path class="cls-11" d="M76.41,58.49q.48,13.82,1,27.64l-.47.37c-.16-9.34-1.07-18.65-.93-28A1.7,1.7,0,0,1,76.41,58.49Z"/><path class="cls-11" d="M45.11,90.72V61.77a4.32,4.32,0,0,0-.45-2.67l.92,0,0,31.7A1.69,1.69,0,0,1,45.11,90.72Z"/><path class="cls-11" d="M35.43,85.71q0-13.65,0-27.3a3.11,3.11,0,0,1,.44.06q0,13.82,0,27.62Z"/><path class="cls-10" d="M45.12,35.51c-.9-1.4-.39-3-.44-4.44-.08-3,0-5.93,0-8.89l.91-.39q0,6.86,0,13.73Z"/><path class="cls-11" d="M86.15,35.39C86,42,86.88,48.61,87,55.23l-.46,0c-.59-6.85-.94-13.72-.92-20.6Z"/><path class="cls-10" d="M26.25,48.4c0-3.87,0-7.73-.05-11.6l.51-.83c1,1.93.4,4,.4,6s.54,4.35-.4,6.44Z"/><path class="cls-11" d="M87,57.58,88,74.65c-.14.19-.29.38-.43.58q-.49-8.82-1-17.65Z"/><path class="cls-10" d="M66.3,44.71c1,2.86.2,5.8.46,8.69l-.47,0c-.72-2.86-.39-5.77-.45-8.67Z"/><path class="cls-11" d="M66.76,91.18c0-3.68,0-7.35,0-11h.46c0,3.65,0,7.3,0,11Z"/><path class="cls-6" d="M57.51,20.87l-.34-.93.42.25C57.56,20.42,57.54,20.64,57.51,20.87Z"/><path class="cls-11" d="M66.3,44.71h-.46V24.14h.46Z"/><path class="cls-12" d="M62.62,56.54a5.92,5.92,0,0,1-6.06,6.1,6,6,0,0,1-5.91-6,5.71,5.71,0,0,1,6.1-5.93A5.6,5.6,0,0,1,62.62,56.54Z"/><path class="cls-5" d="M35.91,58.47a3.11,3.11,0,0,0-.44-.06,52.45,52.45,0,0,0-8.76-.79l-.47,0c-1.77-.77-3.8,0-5.55-.9,8.19,0,16.38.06,24.56-.08,2.19,0,2.92.72,2.67,2.74l-2.34-.2-.92,0Z"/><path class="cls-5" d="M59.79,65q-1.18,13.33-2.38,26.66a6.2,6.2,0,0,1-.33-1.3c0-7.71,0-15.42,0-23.13C57,65,58.63,65.42,59.79,65Z"/><path class="cls-11" d="M45.12,35.51h.44q0,9,0,18l-.44,0Q45.13,44.51,45.12,35.51Z"/><path class="cls-11" d="M66.3,73.25q0-6.93,0-13.85l.51-.26q0,7,0,14.11Z"/><path class="cls-11" d="M26.25,48.4h.46c0,2.28,0,4.57,0,6.85l-.49,0C26.24,53,26.24,50.69,26.25,48.4Z"/><path class="cls-10" d="M66.3,73.25h.47c1,2.25.2,4.61.44,6.91h-.46C65.75,77.91,66.54,75.54,66.3,73.25Z"/><path class="cls-11" d="M26.24,57.58l.47,0c0,5,0,10.06,0,15.1,0,.81.23,1.7-.46,2.39Z"/></g></g></svg>