<svg xmlns="http://www.w3.org/2000/svg" viewBox="0 0 559 559"><defs><style>.cls-1{fill:#323c80;}.cls-2{fill:#853e2c;}.cls-3{fill:#1969af;stroke:#27aae1;stroke-width:0.5px;}.cls-18,.cls-3,.cls-7{stroke-miterlimit:10;}.cls-4{fill:#e35a89;}.cls-5{fill:#d1d3d4;}.cls-6{fill:#662c1e;}.cls-14,.cls-7{fill:#4088bf;}.cls-18,.cls-7{stroke:#2e3192;}.cls-7{stroke-width:0.75px;}.cls-8{fill:#e0427e;}.cls-9{fill:#231f20;}.cls-10{fill:#c1bd31;}.cls-11{fill:#9d732a;}.cls-12{fill:#db9a30;}.cls-13{fill:#7c2e1a;}.cls-15{fill:#803824;}.cls-16{fill:#13153e;}.cls-17{fill:#fff;}.cls-18{fill:none;}.cls-19{fill:#2e3192;}.cls-20{fill:#e6e7e8;}</style></defs><g id="Layer_3" data-name="Layer 3"><path class="cls-1" d="M240.63,282c-4.95,8.87-5.76,19.25-4.49,29.17q.53,4.08,1.37,8.1c.47,2.24.7,5,2.4,6.7a9.42,9.42,0,0,0,2.83,1.72l3.82,1.78c2.37,1.1,4.74,2.19,7.1,3.31a38.77,38.77,0,0,1,6.86,4.1c2.13,1.61,4.39,3,7.17,3a2.59,2.59,0,0,0,2.5-2.5c1.1-8.3-3.16-16-6.67-23.16-3.72-7.61-6.79-15.5-11.65-22.5-2.73-3.93-5.78-7.64-8.82-11.34l-1.1,4.18a20.55,20.55,0,0,0,9.55-8.49c2.4-3.76,4-8,6.53-11.64,4.31-6.21,12.42-9.38,14.27-17.28.73-3.13-4.09-4.47-4.82-1.33s-3.08,5.52-5.47,7.66c-2.75,2.46-5.57,4.74-7.79,7.73-2.53,3.4-4.12,7.36-6.24,11-1.73,3-4,6.18-7.36,7.52a2.55,2.55,0,0,0-1.1,4.18c5.09,6.19,9.91,12.43,13.51,19.63,1.82,3.67,3.44,7.43,5.18,11.13,1.62,3.44,3.46,6.79,4.89,10.31,1.61,4,2.66,8.08,2.09,12.39l2.5-2.5c-1.8,0-3.28-1.25-4.65-2.28a34.16,34.16,0,0,0-5.42-3.39c-4.28-2.15-8.7-4.05-13-6.11-.48-.23-1.06-.42-1.29-.86a14.14,14.14,0,0,1-.76-3.3c-.5-2.3-.94-4.62-1.28-6.95a56.84,56.84,0,0,1-.45-13.73,34.89,34.89,0,0,1,4.13-13.7c1.57-2.81-2.74-5.34-4.31-2.52Z"/><path class="cls-2" d="M236.67,236.62s-29.67-24.5-37.34-66.09c-14.66-42.64-49.66-49.92-66.66-27-7,57.51,8.89,105,10.44,108.15S236.67,236.62,236.67,236.62Z"/><path class="cls-3" d="M165.19,329.07s20.67,38.25,24,37.86c14,4.56,47.49,7.07,47.49,7.07Z"/><path class="cls-4" d="M246,388.47s.63,3.84.19,4.68A28.62,28.62,0,0,0,245,396.7s-2.57,2.84-2.37,5.06c.13,1.5-1.21,3.85-2.18,5.32a36.91,36.91,0,0,1,4.14,1.07,3.9,3.9,0,0,1,.81-2c2-2.61,3.07-2.73,3.07-2.73a6.12,6.12,0,0,0,.6-1.48,6.92,6.92,0,0,1,1.3-2.68c.32-.06.17-5.25.17-5.25l.34-4.5Z"/><path class="cls-4" d="M255.1,413.89c-.53-1.13-1.9-1.54-3.11-1.82a14.53,14.53,0,0,1-4.44-1.53c-1.29-.55-2.65-1.32-2.79-2.86a18.32,18.32,0,0,1-4.17-.88c-4.25,4.84-11.56,1.18-17,3.2a3.82,3.82,0,0,1,2,4.57c3-.15,10.83.53,10.55,4.57a13.2,13.2,0,0,0,5.37-1.05c1.2-.63,2.17-1.62,3.42-2.07,2.93-1,5.75,1,8.45,1.76a1.36,1.36,0,0,0,.82.05c.42-.15.6-.64.72-1.07A4.13,4.13,0,0,0,255.1,413.89Z"/><path class="cls-5" d="M254.67,413.23c4.27,3.21,4.71,5.83,4.71,5.83a60.7,60.7,0,0,0-6.22-1.2C255.32,417.48,254.67,413.23,254.67,413.23Z"/><path class="cls-5" d="M223.91,409.62c-3.75-1.16-5.48,3.41-8.1,5.09a22.56,22.56,0,0,0,9.54-.14,1.16,1.16,0,0,0,.67-.33,1.13,1.13,0,0,0,.1-.87,7.26,7.26,0,0,0-2.13-3.88"/><path class="cls-5" d="M232,414.74c-4.35.24-4.06,5.15-6,7.88a25.56,25.56,0,0,0,11.72-2.9c.34-.17.69-.37.73-.7s-.32-.81-.7-1.16a13.81,13.81,0,0,0-5.75-3.27"/><path class="cls-6" d="M233.57,370a.51.51,0,0,0-.47.76c2.17,3.94,11.79,21.21,13.57,21.21a12.08,12.08,0,0,0,4.07-.88S275.67,375,271.67,373C268.05,371.19,239.08,370.2,233.57,370Z"/><path class="cls-7" d="M143.06,247.92c-23.87,180.66,248.7,146.79,310.39,124.73,0,0-142.59-135.58-212.18-136.93C203.05,227.27,143.06,247.92,143.06,247.92Z"/><path class="cls-8" d="M300.2,402a1.82,1.82,0,0,0-1.79,2.32,7.61,7.61,0,0,1,.49,3.08,30.73,30.73,0,0,0-.59,4c-.44,1.62-2.37,4.18-1.69,6.84a8.83,8.83,0,0,1-.53,4.44,1.81,1.81,0,0,0,1.61,2.36l.85.07a1.85,1.85,0,0,0,1.91-1.42,5.33,5.33,0,0,1,.36-1,10.24,10.24,0,0,1,2.55-3.61,2.68,2.68,0,0,0,.82-2.13c-.05-.58.58-3.29.94-3.43s-.79-5.37-.95-6.11a.52.52,0,0,1,0-.18l-.41-3.65A1.82,1.82,0,0,0,302,402Z"/><path class="cls-4" d="M313.92,429.7c-.86-1.21-2.55-1.38-4-1.44a17.1,17.1,0,0,1-5.54-.81,5.34,5.34,0,0,1-3.52-1.89,1.71,1.71,0,0,0-1.53-.76,21.64,21.64,0,0,1-3.94-.19c-2,3.79-6.56,4.56-10.58,5.16a42.44,42.44,0,0,0-5.31,1,1.81,1.81,0,0,0-.91,2.86,4.86,4.86,0,0,1,.89,1.64,1.84,1.84,0,0,0,2.05,1.36c3.21-.4,9-.82,11.05,2.12a1.83,1.83,0,0,0,2.07.85,12.22,12.22,0,0,0,4.38-2c1.26-1,2.18-2.37,3.54-3.18,3.2-1.86,7-.14,10.29.2a1.6,1.6,0,0,0,1-.13,1.73,1.73,0,0,0,.61-1.41A4.93,4.93,0,0,0,313.92,429.7Z"/><path class="cls-5" d="M316.73,431.1a1.89,1.89,0,0,1-1.09,3.59C312.43,434.44,313.93,429.38,316.73,431.1Z"/><path class="cls-5" d="M276.44,431.61a4.42,4.42,0,0,0-3.67,1.26,13.74,13.74,0,0,0-2.52,3.51,1.84,1.84,0,0,0,1.86,2.73,26.71,26.71,0,0,0,7.12-2,1.37,1.37,0,0,0,.71-.53,1.31,1.31,0,0,0-.08-1,8.6,8.6,0,0,0-3.35-4.08"/><path class="cls-5" d="M287,435.83c-3.18.78-4,3.7-4.3,6.51-.05.42-.11.84-.17,1.26a1.82,1.82,0,0,0,2.34,2,31.8,31.8,0,0,0,10-5.23c.35-.27.72-.58.7-1s-.57-.88-1.08-1.21a16.59,16.59,0,0,0-7.46-2.55"/><path class="cls-9" d="M171.1,155c-2.62-1-5.48-1.68-8-.11a15.22,15.22,0,0,0-3.34,3.07c-1.18,1.36-3.09,3.11-5,2.85-.62-.09-.9.88-.26,1,3.82.52,5.87-3.5,8.45-5.52a5.87,5.87,0,0,1,3.41-1.34,11.78,11.78,0,0,1,4.55,1.06c.6.23.86-.73.27-1Z"/><path class="cls-10" d="M161.52,158.29c-2.18,3.28,3,10,6.85,8.68,1.79-.55,8.76-2.51,5-8.41C170.18,154.38,165.67,152.76,161.52,158.29Z"/><path class="cls-9" d="M161.2,158.11c-1.5,2.35.15,5.48,1.84,7.24a6.83,6.83,0,0,0,3.46,2.09,5.52,5.52,0,0,0,2.89-.4c2-.66,4.24-1.69,5.11-3.72,1.26-2.92-1.29-6-3.54-7.64a6.27,6.27,0,0,0-4.76-1.21c-2.12.39-3.75,2-5,3.64-.29.38.36.75.65.37a8.19,8.19,0,0,1,4.14-3.19,5.17,5.17,0,0,1,3.91.6c2.14,1.21,4.82,4.05,4,6.76-.52,1.84-2.54,2.86-4.21,3.47a8.46,8.46,0,0,1-2.19.64,4.71,4.71,0,0,1-3.2-1.21c-1.82-1.47-4-4.72-2.5-7.07C162.11,158.08,161.46,157.7,161.2,158.11Z"/><path class="cls-9" d="M170,155.91a10.81,10.81,0,0,1,3.14,3.32,4.81,4.81,0,0,1-.22,4.73c-2,3.37-6.11,3.33-9.56,3.13-.64,0-.64,1,0,1a17.13,17.13,0,0,0,6.34-.44,7.23,7.23,0,0,0,4.17-3.34,5.83,5.83,0,0,0,.36-5.1,10.51,10.51,0,0,0-3.52-4c-.5-.39-1.22.31-.71.7Z"/><path class="cls-9" d="M174.58,163a6,6,0,0,1,4.61-3.72.51.51,0,0,0,.5-.5.51.51,0,0,0-.5-.5,7.08,7.08,0,0,0-5.58,4.46.5.5,0,0,0,.35.61.52.52,0,0,0,.62-.35Z"/><path class="cls-9" d="M179.08,158.38c-3.44-1.65-6.85-4-10.74-4.4a6.32,6.32,0,0,0-4.23,1,24.67,24.67,0,0,0-3.17,2.87,7.75,7.75,0,0,1-4.18,2.48c-.63.1-.36,1.06.27,1,2.85-.44,4.59-2.87,6.61-4.67a5.9,5.9,0,0,1,3.69-1.7,12.43,12.43,0,0,1,5.4,1.35c2,.9,3.88,2,5.85,2.95.57.27,1.08-.59.5-.87Z"/><path class="cls-9" d="M171.36,156a10.74,10.74,0,0,1,2.92,4.42.5.5,0,0,0,.83.22,5.67,5.67,0,0,1,2.18-1.4c.5-.18.47-1.06-.13-1a2.88,2.88,0,0,1-3.2-1.52l-.74.56,2.62,1.33.39-.91c-2.87-1.14-5.71-3.75-9-3.36-2.68.32-4.3,3-7,3.34-.64.07-.64,1.07,0,1a7.5,7.5,0,0,0,3.45-1.48,9.52,9.52,0,0,1,3.33-1.82,7.2,7.2,0,0,1,4.53,1.08c1.46.74,2.86,1.6,4.38,2.21.53.2.89-.66.39-.92l-2.62-1.33c-.35-.18-.91.12-.74.56a3.82,3.82,0,0,0,4.17,2.26l-.13-1A7.13,7.13,0,0,0,174.4,160l.84.22a11.78,11.78,0,0,0-3.17-4.86c-.48-.43-1.19.28-.71.71Z"/><path class="cls-9" d="M174.89,159.7a.5.5,0,0,0,0-1,.5.5,0,0,0,0,1Z"/><path class="cls-9" d="M174,161.92a.5.5,0,0,0,0-1,.5.5,0,0,0,0,1Z"/><path class="cls-9" d="M132.52,157.86c.71-.63,1.68-1.49,2.7-1.41a3,3,0,0,1,1.85,1.28c.75.92,1.3,2,2.11,2.85s1.77,1.53,2.87,1.13c.6-.22.34-1.18-.26-1-1.19.42-2.28-1.28-2.83-2.09a10.86,10.86,0,0,0-2-2.45,2.83,2.83,0,0,0-2.27-.73,5.92,5.92,0,0,0-2.89,1.67c-.49.43.22,1.14.7.71Z"/><path class="cls-10" d="M137.79,159.2c1.17,2-.55,8.44-3.26,7.88-1-.29-4.73-1.3-3.37-6.5C132.51,156.39,135,154.28,137.79,159.2Z"/><path class="cls-9" d="M137.47,159.39a3.81,3.81,0,0,1,.3,2.11,9.52,9.52,0,0,1-.59,2.69c-.41,1.1-1.33,2.92-2.78,2.46a4.41,4.41,0,0,1-2.72-2c-1-2-.17-4.61.92-6.36.45-.73,1.18-1.62,2.14-1.53,1.28.14,2.17,1.68,2.73,2.66a.38.38,0,0,0,.65-.38,6,6,0,0,0-2.8-2.91,2.5,2.5,0,0,0-2.55.72,8.53,8.53,0,0,0-1.85,3.31,6.92,6.92,0,0,0-.26,3.9,4.76,4.76,0,0,0,3.19,3.23,2.33,2.33,0,0,0,1.85,0,4.05,4.05,0,0,0,1.77-1.91,10.11,10.11,0,0,0,1-3.44,4.94,4.94,0,0,0-.36-2.94A.38.38,0,0,0,137.47,159.39Z"/><path class="cls-9" d="M132.09,157.29a11.44,11.44,0,0,0-1.5,3.57A7.11,7.11,0,0,0,131,165a5,5,0,0,0,2.1,2.55,5.9,5.9,0,0,0,4.2.17c.63-.14.37-1.1-.26-1a4.75,4.75,0,0,1-3.61-.17,4.43,4.43,0,0,1-1.63-2.26c-.82-2.32,0-4.48,1.15-6.49a.5.5,0,0,0-.87-.51Z"/><path class="cls-9" d="M131.68,164.15c-.62-1.52-1.8-3.29-3.63-3.35a.49.49,0,0,0-.5.5.51.51,0,0,0,.5.5h.12l.21,0,.22.07s.14.05,0,0l.1.05a3.38,3.38,0,0,1,.41.24l.09.07,0,0,.21.19a4.86,4.86,0,0,1,.38.41l0,0,.09.11c.05.08.11.16.16.25a7.05,7.05,0,0,1,.59,1.11.51.51,0,0,0,.61.35.5.5,0,0,0,.35-.62Z"/><path class="cls-9" d="M128.59,161.65c1.16-1.25,2.17-2.64,3.44-3.78.91-.82,2.24-1.72,3.42-.87,1.82,1.3,2.57,4.36,5.1,4.57.64.06.64-.94,0-1-1.17-.1-2-1.45-2.63-2.29a6.49,6.49,0,0,0-2.66-2.51c-1.36-.47-2.74.37-3.74,1.22a46.79,46.79,0,0,0-3.63,3.95c-.44.47.27,1.18.7.71Z"/><path class="cls-9" d="M131.33,157.54a13.06,13.06,0,0,0-1.25,4.68l.86-.36a4.06,4.06,0,0,0-1.68-1.22l-.14,1c1.43,0,2.14-1.28,2.29-2.53a.5.5,0,0,0-.85-.35l-1.29,1.44a.5.5,0,0,0,.71.71,28.39,28.39,0,0,0,2.13-2.39c.53-.6,1.36-1.56,2.27-1.43.76.11,1.37.87,1.92,1.35a3.51,3.51,0,0,0,2.22,1.09.5.5,0,0,0,0-1c-.86,0-1.53-.82-2.12-1.35a3.35,3.35,0,0,0-2.28-1.1,4.06,4.06,0,0,0-2.54,1.54c-.78.84-1.44,1.81-2.31,2.58l.71.71,1.28-1.45-.85-.35c-.09.72-.45,1.55-1.29,1.53-.59,0-.63.79-.13,1a3.11,3.11,0,0,1,1.24,1c.31.37.82,0,.85-.35a11.79,11.79,0,0,1,1.12-4.17c.28-.58-.58-1.09-.87-.51Z"/><path class="cls-9" d="M130.39,161.77a.5.5,0,0,0,0-1,.5.5,0,0,0,0,1Z"/><path class="cls-9" d="M129.8,161.19a.5.5,0,0,0,0-1,.5.5,0,0,0,0,1Z"/><path class="cls-9" d="M129.44,161.28a.5.5,0,0,0,0-1,.5.5,0,0,0,0,1Z"/><path class="cls-9" d="M131.08,163.59a.5.5,0,0,0,0-1,.5.5,0,0,0,0,1Z"/><path class="cls-11" d="M137.42,187.75c8.81,1,21-.44,20.15-6.52S137.42,187.75,137.42,187.75Z"/><path class="cls-12" d="M158.66,177.21s-6.5-14.24-20.77-6.75c-8.32,8.71-6.61,16.77-6.61,16.77,1.89,3.07,12.06-1.56,12.06-1.56S159.33,186.24,158.66,177.21Z"/><path class="cls-13" d="M399.67,367c30.48,4.05,54,5,54,5s8,0-44.09-41.05"/><path class="cls-14" d="M400.62,365.1c-60.71-7.89-153.3-23.46-164-46.1-16-34,31-79,31-79,45.92,13.72,103.17,57.69,141.91,90.95"/><path class="cls-15" d="M286.67,389c-.41,0-.76-.56-.57-.21,2.17,3.94,11.79,21.21,13.57,21.21a12.08,12.08,0,0,0,4.07-.88S329.14,391,324.67,391C315.67,391,292.18,389.17,286.67,389Z"/><path class="cls-7" d="M244.66,212.23c-13-5.58-76.93,34.94-80,51.77,35.93-17.68,90-33.62,102-21.76,29,13.76,13-18.36,0-22.12C256.67,207.73,244.66,212.23,244.66,212.23Z"/><path class="cls-7" d="M137,230.15C133.67,244,139.73,263,164.67,264c4.93-9,4-8,4-8-12-5-28-19-29-23C136.67,230,137,230.15,137,230.15Z"/><path class="cls-16" d="M194.71,245c-4.19.57-10,8-10,9s16-4.85,16-4.85S197.76,244.61,194.71,245Z"/><path class="cls-16" d="M147.85,252.12c4.64,1.11,5.82,9.88,5.82,9.88l-9.8-5.49C142.57,253.23,147.85,252.12,147.85,252.12Z"/><path class="cls-17" d="M191.52,251.71c-2.46.61-3.34,3.58-3.79,6.06A88.63,88.63,0,0,0,186,271.51c-.16,7,1.33,13.92,2,20.9.55,6.26.33,12.86-2.28,18.52A.85.85,0,0,0,186.9,312a8.12,8.12,0,0,0,2.23-3c2.05-4.37,2.23-9.39,1.78-14.19s-1.56-9.54-1.7-14.37c-.54-18.46,1.7-19,1.46-28.46"/><path class="cls-17" d="M147.33,258.55c6.62,15.35,7.15,32.5,9.57,49,.53,3.65,1.5,7.78,4.74,9.54l-2.31-16.71c-1.59-11.51-3.23-23.19-7.92-33.83a62.49,62.49,0,0,0-5.1-9.33"/><path class="cls-18" d="M400.17,365.5s2.41-3.7,9.5-34.5"/><path class="cls-19" d="M265.86,220c-3.85-.63-6.55,2.47-9.39,4.48-3.13,2.22-6.93,2.59-10.65,2.87-.48,0-.48.79,0,.75,3.45-.26,7.09-.56,10.13-2.38s5.77-5.64,9.71-5c.48.08.68-.65.2-.72Z"/><path class="cls-19" d="M262.15,218.51c-3.37.62-5.84,3.67-9.3,3.93-.48,0-.49.79,0,.75,3.57-.27,6-3.32,9.5-3.95.47-.09.27-.81-.2-.73Z"/><path class="cls-18" d="M270.67,244.24C248.67,264,223.22,309,244.44,326c37.23,31,155,40.41,155,40.41"/><path class="cls-20" d="M152.46,244.93c4.21,3.07,13.35,10.21,16.28,10.14,3.93-5.07,21.2-18.66,21.2-18.66Z"/><path class="cls-19" d="M216.83,373.6a127.39,127.39,0,0,0,41.75-22.19,130.2,130.2,0,0,0,10.23-9.13.63.63,0,0,0-.88-.89,125.12,125.12,0,0,1-51.43,31c-.77.24-.44,1.44.33,1.2Z"/><path class="cls-19" d="M266.33,345.16a125.82,125.82,0,0,0,54,20c5.95.78,11.94,1.23,17.94,1.54.8.05.8-1.2,0-1.25a179.08,179.08,0,0,1-30.87-3.84,120.93,120.93,0,0,1-26.66-9.53,122.59,122.59,0,0,1-13.76-8c-.67-.45-1.29.63-.63,1.08Z"/><path class="cls-19" d="M269.16,341.72l.22-.44a.49.49,0,0,0,.08-.23.69.69,0,0,0,0-.25.45.45,0,0,0-.12-.21.46.46,0,0,0-.17-.17l-.15-.06a.62.62,0,0,0-.33,0l-.15.06a.63.63,0,0,0-.23.23l-.22.44a.49.49,0,0,0-.08.23.69.69,0,0,0,0,.25.45.45,0,0,0,.12.21.46.46,0,0,0,.17.17l.15.06a.62.62,0,0,0,.33,0l.15-.06a.72.72,0,0,0,.23-.23Z"/><path class="cls-15" d="M344,360c-3.28,6.59-19.28,31-19.28,31s110-2.93,129-18.55C432.67,371.47,344,360,344,360Z"/><path class="cls-19" d="M344.22,359.56c-4.42,3.69-7.27,8.73-10,13.75a109.6,109.6,0,0,1-10.37,16.47c-.49.63.39,1.52.89.89a107.44,107.44,0,0,0,10.19-16c2.74-5.16,5.57-10.4,10.13-14.21.62-.51-.27-1.39-.89-.88Z"/><path class="cls-19" d="M143.86,264.31a54.18,54.18,0,0,0-1,8.13,42.16,42.16,0,0,1-.93,8.46.25.25,0,0,0,.49.13,40.23,40.23,0,0,0,.91-8,55.5,55.5,0,0,1,1-8.62c.06-.31-.42-.45-.48-.13Z"/><path class="cls-19" d="M206.42,365.72c1.59,2.46,4.78,3.41,6.12,6,.15.29.58,0,.44-.25-1.36-2.66-4.54-3.59-6.13-6-.17-.27-.6,0-.43.25Z"/><path class="cls-19" d="M259.26,339.94l9,1.28c.32,0,.45-.44.13-.49l-9-1.27c-.32,0-.45.43-.14.48Z"/><path class="cls-19" d="M268.7,340.52a75.24,75.24,0,0,1-9.78-2.79c-.3-.11-.43.37-.13.48a75.54,75.54,0,0,0,9.77,2.79c.32.07.45-.42.14-.48Z"/><path class="cls-19" d="M269.93,244a40.06,40.06,0,0,0-8.93,2.64c-.3.13,0,.56.25.43a39.63,39.63,0,0,1,8.81-2.59c.32-.06.18-.54-.13-.48Z"/><path class="cls-19" d="M267.26,242.74l-3.17,1.13c-.3.1-.17.59.13.48l3.18-1.13c.3-.1.17-.59-.14-.48Z"/><path class="cls-19" d="M211.76,368.24q1.41,2.22,2.91,4.38c.18.26.61,0,.43-.25q-1.5-2.17-2.9-4.39c-.18-.27-.61,0-.44.26Z"/><path class="cls-19" d="M244.94,267.43a20,20,0,0,0-3.86,7.22.25.25,0,0,0,.48.14,19.46,19.46,0,0,1,3.73-7c.2-.24-.15-.6-.35-.35Z"/><path class="cls-19" d="M245.57,270.09a8.58,8.58,0,0,0-2.85,4c-.1.3.38.44.49.13a8.05,8.05,0,0,1,2.71-3.79.25.25,0,1,0-.35-.35Z"/><path class="cls-19" d="M180.37,243a24.19,24.19,0,0,0-3.71,4.18c-.18.27.25.52.43.25a23.89,23.89,0,0,1,3.64-4.08c.24-.21-.12-.56-.36-.35Z"/><path class="cls-19" d="M153.68,322.14c3.68,4.06,7.07,8.35,10.59,12.56,3,3.56,6.51,6.9,11.2,7.87.31.07.45-.41.13-.48-4.87-1-8.43-4.63-11.47-8.34-3.31-4-6.59-8.09-10.1-12-.21-.24-.56.12-.35.36Z"/></g></svg>